<svg width="614" height="534" viewBox="0 0 614 534" fill="none" xmlns="http://www.w3.org/2000/svg">
<path d="M475.293 319.663V319.572C462.826 315.431 443.696 316.837 440.855 318.533C437.833 320.555 435.238 323.151 433.215 326.172C426.5 335.699 421.685 346.433 419.036 357.784L283.435 370.389C278.439 359.602 270.907 349.931 263.343 344.094C261.182 342.285 258.692 340.91 256.01 340.045C254.829 339.904 253.633 339.945 252.465 340.168C247.545 325.912 240.578 312.161 231.869 311.29C213.534 309.457 181.54 315.599 172.816 333.384C164.091 351.168 161.356 395.569 161.356 395.569L155.245 401.681C150.787 392.997 144.587 385.325 137.032 379.144C134.878 377.324 132.386 375.948 129.698 375.095C128.17 374.667 122.059 375.615 115.657 377.708C115.397 377.464 115.153 377.219 114.878 376.99C108.766 371.871 96.2373 369.075 89.2396 382.124C82.2418 395.172 90.6452 419.878 94.8317 425.47C96.8648 428.327 99.4144 430.778 102.349 432.697C107.284 444.92 116.1 460.505 129.668 461.223C134.315 461.473 138.962 460.721 143.293 459.018C147.624 457.315 151.539 454.701 154.771 451.353C163.572 442.185 164.519 429.305 161.203 416.7L162.624 414.622C162.624 414.622 165.787 419.129 177.903 417.311C181.416 416.949 184.746 415.569 187.483 413.339C193.167 427.838 202.35 442.369 216.941 444.538C223.203 445.496 229.599 445.094 235.692 443.359C241.785 441.625 247.432 438.598 252.251 434.485C255.051 432.066 257.495 429.262 259.508 426.158C267.678 425.707 275.375 422.18 281.052 416.287C286.131 410.871 289.036 403.772 289.211 396.348L307.255 394.24C318.583 399.292 330.941 401.606 343.329 400.993C355.191 400.231 366.42 395.37 375.094 387.242L416.21 383.728C416.897 399.664 422.627 414.286 436.072 422.338C441.22 425.41 446.972 427.33 452.934 427.966C458.895 428.602 464.923 427.938 470.603 426.02C489.564 419.664 494.056 391.49 495.278 374.362C497.173 346.86 488.403 323.559 475.293 319.663Z" fill="#263238" stroke="#263238" stroke-width="0.75" stroke-linecap="round" stroke-linejoin="round"/>
<path d="M224.26 435.692C222.683 437.707 220.672 439.342 218.377 440.474" stroke="white" stroke-width="0.5" stroke-linecap="round" stroke-linejoin="round"/>
<path d="M231.67 399.48C231.67 399.48 233.488 419.343 226.72 431.948" stroke="white" stroke-width="0.5" stroke-linecap="round" stroke-linejoin="round"/>
<path d="M237.033 421.421C235.306 429.06 231.869 436.471 225.207 439.756" stroke="white" stroke-width="0.5" stroke-linecap="round" stroke-linejoin="round"/>
<path d="M245.329 397.968C245.329 397.968 248.385 430.986 232.052 438.961" stroke="white" stroke-width="0.5" stroke-linecap="round" stroke-linejoin="round"/>
<path d="M252.174 397.204C252.174 397.204 255.23 430.237 238.882 438.197" stroke="white" stroke-width="0.5" stroke-linecap="round" stroke-linejoin="round"/>
<path d="M458.303 420.352C456.547 422.569 454.365 424.413 451.886 425.776" stroke="white" stroke-width="0.5" stroke-linecap="round" stroke-linejoin="round"/>
<path d="M470.587 379.114C470.587 379.114 469.609 401.711 461.221 416.089" stroke="white" stroke-width="0.5" stroke-linecap="round" stroke-linejoin="round"/>
<path d="M472.772 404.141C470.022 412.834 465.621 421.268 458.67 424.935" stroke="white" stroke-width="0.5" stroke-linecap="round" stroke-linejoin="round"/>
<path d="M484.155 377.433C484.155 377.433 482.52 415.08 465.453 424.095" stroke="white" stroke-width="0.5" stroke-linecap="round" stroke-linejoin="round"/>
<path d="M490.969 376.608C490.969 376.608 489.334 414.24 472.268 423.27" stroke="white" stroke-width="0.5" stroke-linecap="round" stroke-linejoin="round"/>
<path d="M133.977 456.12C132.676 458.112 130.962 459.801 128.95 461.07" stroke="white" stroke-width="0.5" stroke-linecap="round" stroke-linejoin="round"/>
<path d="M136.39 423.988C136.39 423.988 140.699 440.795 135.84 452.545" stroke="white" stroke-width="0.5" stroke-linecap="round" stroke-linejoin="round"/>
<path d="M144.381 442.032C143.694 448.831 141.325 455.676 135.412 459.435" stroke="white" stroke-width="0.5" stroke-linecap="round" stroke-linejoin="round"/>
<path d="M149.286 420.718C149.286 420.718 156.467 448.603 141.86 457.785" stroke="white" stroke-width="0.5" stroke-linecap="round" stroke-linejoin="round"/>
<path d="M155.733 419.068C155.733 419.068 162.93 446.952 148.308 456.15" stroke="white" stroke-width="0.5" stroke-linecap="round" stroke-linejoin="round"/>
<path d="M208.4 388.159C212.037 408.954 209.76 426.738 203.343 427.884C196.926 429.03 188.751 413.048 185.115 392.254C181.479 371.459 183.755 353.674 190.188 352.528C196.62 351.382 204.764 367.349 208.4 388.159Z" fill="#FF6969" stroke="#263238" stroke-linecap="round" stroke-linejoin="round"/>
<path d="M205.161 388.602C206.169 396.578 205.237 403.254 203.053 403.529C200.868 403.805 198.301 397.571 197.292 389.595C196.284 381.619 197.292 374.927 199.401 374.652C201.509 374.377 204.153 380.626 205.161 388.602Z" fill="#FF6969" stroke="#263238" stroke-linecap="round" stroke-linejoin="round"/>
<path d="M189.836 369.534C190.053 366.857 190.477 364.2 191.104 361.589" stroke="#263238" stroke-width="0.75" stroke-linecap="round" stroke-linejoin="round"/>
<path d="M199.966 420.382C195.738 411.916 192.714 402.901 190.982 393.598C189.832 387.018 189.366 380.336 189.592 373.659" stroke="#263238" stroke-width="0.75" stroke-linecap="round" stroke-linejoin="round"/>
<path d="M118.48 449.959C123.099 448.679 123.484 435.518 119.34 420.564C115.195 405.609 108.091 394.524 103.472 395.804C98.8533 397.084 98.4687 410.245 102.613 425.199C106.758 440.154 113.862 451.239 118.48 449.959Z" fill="#FF6969" stroke="#263238" stroke-linecap="round" stroke-linejoin="round"/>
<path d="M117.826 421.161C119.278 426.845 119.201 431.765 117.643 432.162C116.084 432.56 113.67 428.266 112.219 422.598C110.767 416.929 110.844 411.979 112.402 411.597C113.961 411.215 116.375 415.478 117.826 421.161Z" stroke="#263238" stroke-width="0.75" stroke-linecap="round" stroke-linejoin="round"/>
<path d="M105.023 408.739C104.938 406.781 105.004 404.82 105.221 402.872" stroke="#263238" stroke-width="0.75" stroke-linecap="round" stroke-linejoin="round"/>
<path d="M116.925 444.63C113.105 438.882 110.106 432.629 108.017 426.051C106.59 421.393 105.648 416.601 105.206 411.749" stroke="#263238" stroke-width="0.75" stroke-linecap="round" stroke-linejoin="round"/>
<path d="M446.004 165.346C429.899 132.114 422.948 129.226 412.237 128.676C401.526 128.126 376.24 124.978 348.065 129.486C348.065 129.486 269.47 128.111 208.66 164.948C145.176 203.405 114.282 237.187 109.958 254.697C105.634 272.207 90.8744 317.83 83.8766 343.987C76.8789 370.145 72.1118 393.186 81.0348 414.362C86.4282 427.166 92.1731 431.016 99.5529 430.955C98.4238 428.929 97.4286 426.831 96.5735 424.676C89.2396 406.509 90.1257 380.519 98.4986 378.839C106.872 377.158 111.868 394.561 116.925 413.537C117.929 417.72 119.289 421.809 120.989 425.76C133.503 421.039 153.549 410.481 180.195 399.511C177.666 382.844 177.609 365.896 180.027 349.213C183.969 323.131 200.639 317.371 207.896 333.246C213.901 346.325 216.131 375.599 216.727 385.47C227.423 381.787 236.376 379.358 241.892 379.022C241.892 379.022 333.077 358.426 400.289 356.776C467.501 355.126 501.13 353.521 501.13 353.521C501.13 353.521 462.108 198.516 446.004 165.346Z" fill="white"/>
<mask id="mask0_11_1127" style="mask-type:luminance" maskUnits="userSpaceOnUse" x="76" y="127" width="426" height="304">
<path d="M446.004 165.346C429.899 132.114 422.948 129.226 412.237 128.676C401.526 128.126 376.24 124.978 348.065 129.486C348.065 129.486 269.47 128.111 208.66 164.948C145.176 203.405 114.282 237.187 109.958 254.697C105.634 272.207 90.8744 317.83 83.8766 343.987C76.8789 370.145 72.1118 393.186 81.0348 414.362C86.4282 427.166 92.1731 431.016 99.5529 430.955C98.4238 428.929 97.4286 426.831 96.5735 424.676C89.2396 406.509 90.1257 380.519 98.4986 378.839C106.872 377.158 111.868 394.561 116.925 413.537C117.929 417.72 119.289 421.809 120.989 425.76C133.503 421.039 153.549 410.481 180.195 399.511C177.666 382.844 177.609 365.896 180.027 349.213C183.969 323.131 200.639 317.371 207.896 333.246C213.901 346.325 216.131 375.599 216.727 385.47C227.423 381.787 236.376 379.358 241.892 379.022C241.892 379.022 333.077 358.426 400.289 356.776C467.501 355.126 501.13 353.521 501.13 353.521C501.13 353.521 462.108 198.516 446.004 165.346Z" fill="white"/>
</mask>
<g mask="url(#mask0_11_1127)">
<path d="M231.12 325.683C231.12 325.683 221.876 338.334 210.631 341.039C214.604 355.615 216.238 377.189 216.743 385.348C226.292 382.063 234.405 379.756 239.967 379.083C240.776 374.316 241.265 371.276 241.265 371.276L231.12 325.683Z" fill="#FF6969"/>
<path opacity="0.2" d="M117.322 414.913C121.57 415.341 124.397 417.174 133.029 415.02C148.308 411.215 137.323 381.727 162.67 369.687C167.591 367.206 172.946 365.701 178.438 365.256C178.666 359.86 179.176 354.48 179.966 349.137C180.639 343.889 182.189 338.791 184.55 334.056C177.629 331.933 176.376 329.901 164.58 335.508C139.217 347.548 143.022 378.61 127.819 382.414C115.688 385.47 115.015 380.596 105.802 382.857C110.111 388.969 113.442 400.871 116.803 413.415C117.063 413.981 117.185 414.393 117.322 414.913Z" fill="#FF6969"/>
<g style="mix-blend-mode:multiply">
<path opacity="0.2" d="M92.3719 388.801C85.2672 393.69 81.0349 401.024 78.6208 407.212C79.2757 409.654 80.0819 412.052 81.0349 414.393C86.4284 427.197 92.1733 431.047 99.553 430.986C98.4239 428.96 97.4287 426.863 96.5736 424.707C91.9135 413.14 90.6606 398.427 92.3719 388.801Z" fill="#FF6969"/>
</g>
<g style="mix-blend-mode:multiply" opacity="0.2">
<path d="M412.237 128.676L409.472 128.508C298.042 157.019 252.709 291.321 237.11 356.043C237.95 362.475 238.867 368.785 239.86 374.927C241.754 374.561 240.44 379.022 241.892 378.946C241.892 378.946 333.077 358.35 400.289 356.7C467.501 355.049 501.13 353.445 501.13 353.445C501.13 353.445 462.108 198.516 446.004 165.346C429.9 132.175 422.948 129.165 412.237 128.676Z" fill="#FF6969"/>
</g>
<path d="M355.19 203.103H350.588C350.378 203.103 350.171 203.158 349.989 203.263C349.807 203.368 349.655 203.518 349.549 203.7L347.248 207.686C347.143 207.869 347.088 208.076 347.088 208.287C347.088 208.498 347.143 208.705 347.248 208.888L349.549 212.87C349.654 213.053 349.805 213.205 349.988 213.311C350.17 213.416 350.378 213.472 350.588 213.471H355.19C355.401 213.472 355.608 213.416 355.79 213.311C355.973 213.205 356.124 213.053 356.23 212.87L358.53 208.888C358.635 208.705 358.691 208.498 358.691 208.287C358.691 208.076 358.635 207.869 358.53 207.686L356.23 203.7C356.123 203.518 355.972 203.368 355.789 203.263C355.607 203.158 355.4 203.103 355.19 203.103Z" fill="#7F4A4A"/>
<path opacity="0.5" d="M355.19 203.103H350.588C350.378 203.103 350.171 203.158 349.989 203.263C349.807 203.368 349.655 203.518 349.549 203.7L347.248 207.686C347.143 207.869 347.088 208.076 347.088 208.287C347.088 208.498 347.143 208.705 347.248 208.888L349.549 212.87C349.654 213.053 349.805 213.205 349.988 213.311C350.17 213.416 350.378 213.472 350.588 213.471H355.19C355.401 213.472 355.608 213.416 355.79 213.311C355.973 213.205 356.124 213.053 356.23 212.87L358.53 208.888C358.635 208.705 358.691 208.498 358.691 208.287C358.691 208.076 358.635 207.869 358.53 207.686L356.23 203.7C356.123 203.518 355.972 203.368 355.789 203.263C355.607 203.158 355.4 203.103 355.19 203.103Z" fill="#7F4A4A"/>
<path d="M325.734 189.894L325.473 189.633L327.685 187.42L327.947 187.682L325.734 189.894ZM329.543 186.085L329.281 185.824L333.905 181.2L334.167 181.458L329.543 186.085Z" fill="#7F4A4A"/>
<path opacity="0.5" d="M325.734 189.894L325.473 189.633L327.685 187.42L327.947 187.682L325.734 189.894ZM329.543 186.085L329.281 185.824L333.905 181.2L334.167 181.458L329.543 186.085Z" fill="#7F4A4A"/>
<path d="M384.173 216.631V199.943L379.011 198.324C378.827 197.83 378.624 197.343 378.41 196.849L380.921 192.055L369.123 180.256L364.33 182.771C363.847 182.553 363.364 182.35 362.855 182.162L361.236 177H344.538L342.923 182.162C342.425 182.35 341.942 182.553 341.448 182.771L336.655 180.256L324.857 192.055L327.372 196.849C327.154 197.332 326.951 197.815 326.767 198.324L321.605 199.943V216.631L326.767 218.246C326.955 218.74 327.158 219.227 327.372 219.721L324.857 224.515L336.655 236.314L341.448 233.799C341.928 234.017 342.411 234.22 342.923 234.408L344.538 239.57H361.225L362.844 234.408C363.338 234.22 363.821 234.017 364.319 233.799L369.112 236.314L380.91 224.515L378.396 219.721C378.609 219.242 378.816 218.755 379 218.246L384.173 216.631ZM365.307 208.283C365.307 210.739 364.579 213.141 363.214 215.183C361.85 217.225 359.91 218.817 357.641 219.757C355.372 220.697 352.875 220.943 350.467 220.463C348.058 219.984 345.845 218.802 344.108 217.065C342.372 215.328 341.189 213.115 340.71 210.706C340.231 208.297 340.477 205.8 341.417 203.531C342.356 201.261 343.948 199.322 345.99 197.957C348.032 196.593 350.433 195.864 352.889 195.864C356.182 195.865 359.34 197.174 361.669 199.503C363.997 201.832 365.306 204.99 365.307 208.283Z" fill="#7F4A4A"/>
<path opacity="0.5" d="M384.173 216.631V199.943L379.011 198.324C378.827 197.83 378.624 197.343 378.41 196.849L380.921 192.055L369.123 180.256L364.33 182.771C363.847 182.553 363.364 182.35 362.855 182.162L361.236 177H344.538L342.923 182.162C342.425 182.35 341.942 182.553 341.448 182.771L336.655 180.256L324.857 192.055L327.372 196.849C327.154 197.332 326.951 197.815 326.767 198.324L321.605 199.943V216.631L326.767 218.246C326.955 218.74 327.158 219.227 327.372 219.721L324.857 224.515L336.655 236.314L341.448 233.799C341.928 234.017 342.411 234.22 342.923 234.408L344.538 239.57H361.225L362.844 234.408C363.338 234.22 363.821 234.017 364.319 233.799L369.112 236.314L380.91 224.515L378.396 219.721C378.609 219.242 378.816 218.755 379 218.246L384.173 216.631ZM365.307 208.283C365.307 210.739 364.579 213.141 363.214 215.183C361.85 217.225 359.91 218.817 357.641 219.757C355.372 220.697 352.875 220.943 350.467 220.463C348.058 219.984 345.845 218.802 344.108 217.065C342.372 215.328 341.189 213.115 340.71 210.706C340.231 208.297 340.477 205.8 341.417 203.531C342.356 201.261 343.948 199.322 345.99 197.957C348.032 196.593 350.433 195.864 352.889 195.864C356.182 195.865 359.34 197.174 361.669 199.503C363.997 201.832 365.306 204.99 365.307 208.283Z" fill="#7F4A4A"/>
<path d="M360.422 238.56H345.36C345.34 238.56 345.321 238.553 345.305 238.541C345.289 238.529 345.277 238.512 345.272 238.493L343.797 233.84C343.79 233.816 343.792 233.791 343.803 233.769C343.815 233.747 343.834 233.731 343.858 233.724C343.881 233.716 343.907 233.719 343.928 233.73C343.95 233.742 343.967 233.761 343.974 233.785L345.408 238.375H360.333L361.867 233.53C361.871 233.517 361.878 233.505 361.888 233.495C361.898 233.484 361.909 233.476 361.922 233.471L362.427 233.283C362.855 233.121 363.308 232.933 363.821 232.704L364.311 232.483C364.334 232.473 364.359 232.473 364.382 232.482C364.405 232.491 364.423 232.508 364.433 232.531C364.443 232.553 364.443 232.579 364.434 232.602C364.425 232.625 364.408 232.643 364.385 232.653L363.895 232.87C363.382 233.102 362.921 233.291 362.494 233.453L362.029 233.63L360.51 238.493C360.504 238.512 360.492 238.529 360.476 238.541C360.461 238.552 360.441 238.559 360.422 238.56ZM368.902 235.046C368.877 235.045 368.854 235.036 368.835 235.02C368.826 235.011 368.819 235.001 368.814 234.99C368.81 234.978 368.807 234.966 368.807 234.954C368.807 234.941 368.81 234.929 368.814 234.917C368.819 234.906 368.826 234.896 368.835 234.887L379.439 224.286L377.083 219.788C377.077 219.775 377.073 219.761 377.073 219.747C377.073 219.733 377.077 219.719 377.083 219.706L377.304 219.216C377.525 218.718 377.713 218.261 377.879 217.826L378.067 217.321C378.073 217.308 378.081 217.296 378.091 217.287C378.101 217.277 378.113 217.27 378.126 217.265L382.975 215.75V200.835L378.182 199.338C378.169 199.336 378.156 199.331 378.145 199.324C378.133 199.316 378.124 199.307 378.117 199.295C378.11 199.284 378.105 199.271 378.104 199.258C378.102 199.245 378.103 199.231 378.107 199.218C378.111 199.206 378.118 199.194 378.127 199.184C378.136 199.174 378.147 199.167 378.16 199.161C378.172 199.156 378.185 199.154 378.199 199.154C378.212 199.155 378.225 199.158 378.237 199.164L383.082 200.676C383.1 200.683 383.116 200.695 383.127 200.711C383.138 200.727 383.144 200.745 383.144 200.765V215.827C383.145 215.847 383.139 215.866 383.127 215.882C383.116 215.898 383.1 215.91 383.082 215.916L378.226 217.428L378.053 217.892C377.887 218.331 377.684 218.788 377.47 219.293L377.271 219.743L379.634 224.26C379.646 224.276 379.652 224.294 379.652 224.314C379.652 224.333 379.646 224.352 379.634 224.367L368.986 235.02C368.964 235.039 368.935 235.048 368.905 235.046H368.902ZM336.873 235.046C336.848 235.045 336.825 235.036 336.806 235.02L326.158 224.367C326.148 224.351 326.142 224.333 326.142 224.314C326.142 224.295 326.148 224.276 326.158 224.26L328.544 219.703C328.556 219.681 328.575 219.665 328.599 219.658C328.622 219.65 328.647 219.652 328.669 219.662C328.68 219.668 328.689 219.676 328.697 219.685C328.705 219.695 328.71 219.706 328.714 219.717C328.717 219.729 328.718 219.741 328.717 219.753C328.716 219.765 328.712 219.777 328.706 219.788L326.354 224.286L336.954 234.887C336.963 234.896 336.97 234.906 336.975 234.917C336.98 234.929 336.982 234.941 336.982 234.954C336.982 234.966 336.98 234.978 336.975 234.99C336.97 235.001 336.963 235.011 336.954 235.02C336.943 235.029 336.931 235.036 336.918 235.041C336.905 235.045 336.891 235.047 336.877 235.046H336.873ZM343.141 233.39H343.108C342.739 233.246 342.337 233.077 341.891 232.878C341.878 232.874 341.866 232.868 341.855 232.86C341.845 232.851 341.836 232.841 341.83 232.829C341.824 232.816 341.821 232.803 341.821 232.79C341.821 232.776 341.823 232.763 341.829 232.751C341.834 232.738 341.842 232.727 341.853 232.719C341.863 232.71 341.875 232.703 341.888 232.7C341.901 232.696 341.914 232.695 341.927 232.697C341.941 232.699 341.953 232.704 341.965 232.712C342.407 232.907 342.801 233.08 343.174 233.217C343.185 233.221 343.196 233.228 343.205 233.237C343.214 233.245 343.221 233.255 343.225 233.267C343.23 233.278 343.233 233.29 343.233 233.303C343.233 233.315 343.23 233.327 343.226 233.338C343.218 233.356 343.205 233.37 343.188 233.38C343.171 233.389 343.152 233.393 343.133 233.39H343.141ZM352.896 221.908C349.283 221.901 345.82 220.461 343.267 217.903C340.714 215.345 339.28 211.879 339.28 208.265C339.28 208.24 339.29 208.217 339.307 208.2C339.325 208.182 339.348 208.173 339.373 208.173C339.397 208.173 339.42 208.182 339.438 208.2C339.455 208.217 339.465 208.24 339.465 208.265C339.465 210.921 340.253 213.519 341.728 215.728C343.204 217.937 345.302 219.658 347.756 220.675C350.211 221.692 352.911 221.958 355.517 221.439C358.122 220.921 360.516 219.642 362.394 217.763C364.273 215.885 365.552 213.491 366.07 210.885C366.588 208.28 366.322 205.579 365.306 203.124C364.289 200.67 362.568 198.572 360.359 197.096C358.15 195.62 355.553 194.832 352.896 194.832C352.872 194.832 352.849 194.822 352.831 194.805C352.814 194.788 352.804 194.764 352.804 194.74C352.804 194.715 352.814 194.692 352.831 194.674C352.849 194.657 352.872 194.647 352.896 194.647C356.509 194.647 359.973 196.082 362.527 198.637C365.081 201.191 366.516 204.656 366.516 208.268C366.516 211.881 365.081 215.345 362.527 217.9C359.973 220.454 356.509 221.889 352.896 221.889V221.908ZM327.825 217.951C327.806 217.951 327.787 217.944 327.771 217.933C327.756 217.922 327.744 217.906 327.737 217.889L327.563 217.428L322.693 215.905C322.674 215.899 322.658 215.887 322.647 215.871C322.636 215.855 322.63 215.836 322.63 215.816V200.754C322.63 200.734 322.636 200.715 322.648 200.7C322.659 200.684 322.675 200.672 322.693 200.665L327.349 199.212C327.373 199.205 327.398 199.207 327.42 199.218C327.442 199.229 327.459 199.248 327.467 199.271C327.473 199.295 327.47 199.321 327.459 199.342C327.447 199.364 327.428 199.381 327.405 199.389L322.803 200.835V215.761L327.652 217.277C327.665 217.281 327.676 217.288 327.686 217.297C327.696 217.307 327.703 217.319 327.707 217.332L327.899 217.837C327.907 217.859 327.907 217.884 327.897 217.906C327.887 217.929 327.869 217.946 327.847 217.955L327.825 217.951ZM327.825 198.777H327.792C327.769 198.767 327.751 198.749 327.742 198.727C327.732 198.704 327.732 198.679 327.74 198.656C327.917 198.184 328.109 197.734 328.312 197.276C328.322 197.255 328.341 197.238 328.363 197.229C328.386 197.221 328.411 197.222 328.433 197.232C328.445 197.237 328.455 197.244 328.463 197.253C328.472 197.261 328.478 197.272 328.483 197.283C328.487 197.294 328.489 197.306 328.489 197.319C328.489 197.331 328.486 197.343 328.481 197.354C328.275 197.804 328.09 198.254 327.913 198.722C327.907 198.742 327.894 198.759 327.877 198.771C327.859 198.783 327.839 198.789 327.818 198.788L327.825 198.777ZM377.301 196.672H377.256C377.246 196.666 377.236 196.658 377.229 196.649C377.221 196.639 377.215 196.628 377.212 196.617C377.208 196.605 377.207 196.593 377.209 196.581C377.21 196.569 377.214 196.557 377.219 196.546L379.432 192.288L377.662 190.51C377.651 190.502 377.643 190.492 377.636 190.481C377.63 190.469 377.626 190.456 377.625 190.443C377.624 190.43 377.626 190.417 377.631 190.404C377.635 190.392 377.643 190.381 377.652 190.371C377.661 190.362 377.673 190.355 377.685 190.35C377.697 190.346 377.711 190.344 377.724 190.345C377.737 190.345 377.75 190.349 377.761 190.356C377.773 190.362 377.783 190.371 377.791 190.381L379.634 192.225C379.646 192.24 379.652 192.259 379.652 192.278C379.652 192.298 379.646 192.316 379.634 192.332L377.374 196.65C377.365 196.661 377.352 196.671 377.338 196.676C377.324 196.682 377.308 196.684 377.293 196.683L377.301 196.672ZM326.225 192.354C326.2 192.354 326.176 192.345 326.158 192.328C326.142 192.31 326.134 192.287 326.134 192.264C326.134 192.24 326.142 192.217 326.158 192.199L336.795 181.554C336.811 181.541 336.829 181.535 336.849 181.535C336.868 181.535 336.887 181.541 336.902 181.554L341.419 183.917L341.869 183.718C342.304 183.523 342.702 183.349 343.085 183.206C343.097 183.201 343.109 183.198 343.121 183.198C343.134 183.198 343.146 183.201 343.157 183.206C343.168 183.211 343.179 183.218 343.187 183.226C343.196 183.235 343.203 183.246 343.207 183.257C343.215 183.28 343.214 183.306 343.204 183.328C343.193 183.35 343.175 183.367 343.152 183.375C342.783 183.526 342.377 183.692 341.946 183.884L341.456 184.105C341.443 184.111 341.429 184.114 341.415 184.114C341.401 184.114 341.387 184.111 341.375 184.105L336.877 181.749L326.291 192.354C326.27 192.363 326.246 192.363 326.225 192.354ZM376.191 188.991C376.166 188.991 376.142 188.982 376.124 188.965L368.872 181.731L364.374 184.087C364.362 184.093 364.349 184.097 364.335 184.097C364.322 184.097 364.308 184.093 364.297 184.087L363.806 183.866C363.301 183.641 362.844 183.453 362.413 183.287L361.907 183.099C361.894 183.094 361.883 183.086 361.873 183.075C361.864 183.065 361.856 183.053 361.852 183.04L360.337 178.195H345.427L344.121 182.365C344.118 182.377 344.112 182.387 344.105 182.397C344.097 182.406 344.088 182.414 344.077 182.419C344.066 182.425 344.055 182.428 344.043 182.429C344.031 182.43 344.019 182.428 344.007 182.424C343.984 182.416 343.965 182.4 343.954 182.379C343.943 182.357 343.941 182.333 343.948 182.31L345.275 178.077C345.282 178.058 345.294 178.042 345.31 178.031C345.325 178.02 345.344 178.014 345.364 178.014H360.425C360.445 178.014 360.463 178.02 360.479 178.032C360.495 178.043 360.507 178.058 360.514 178.077L362.033 182.944L362.497 183.121C362.932 183.283 363.39 183.49 363.898 183.703L364.348 183.903L368.872 181.539C368.888 181.527 368.906 181.521 368.926 181.521C368.945 181.521 368.964 181.527 368.979 181.539L376.246 188.84C376.255 188.849 376.262 188.859 376.267 188.87C376.272 188.882 376.274 188.894 376.274 188.906C376.274 188.919 376.272 188.931 376.267 188.942C376.262 188.954 376.255 188.964 376.246 188.973C376.231 188.987 376.212 188.996 376.191 188.998V188.991Z" fill="#FAFAFA"/>
</g>
<path d="M446.004 165.346C429.9 132.114 422.948 129.226 412.237 128.676C401.526 128.126 376.24 124.978 348.065 129.486C348.065 129.486 269.47 128.111 208.66 164.948C145.176 203.405 114.282 237.187 109.958 254.697C105.634 272.207 90.8744 317.83 83.8766 343.987C76.8789 370.145 72.1118 393.186 81.0348 414.362C86.4282 427.166 92.1731 431.016 99.5529 430.955C98.4238 428.929 97.4286 426.831 96.5735 424.675C89.2396 406.509 90.1257 380.519 98.4986 378.839C106.871 377.158 111.868 394.561 116.925 413.537C117.929 417.72 119.289 421.809 120.989 425.76C133.503 421.039 153.549 410.481 180.195 399.511C177.666 382.844 177.609 365.896 180.027 349.213C183.969 323.131 200.639 317.371 207.896 333.246C213.901 346.325 216.131 375.599 216.727 385.47C227.423 381.787 236.376 379.358 241.892 379.022C241.892 379.022 333.077 358.426 400.289 356.776C467.501 355.126 501.13 353.521 501.13 353.521C501.13 353.521 462.108 198.516 446.004 165.346Z" stroke="#263238" stroke-linecap="round" stroke-linejoin="round"/>
<path opacity="0.2" d="M112.463 333.048C113.512 333.92 114.789 334.474 116.143 334.645C117.496 334.816 118.87 334.595 120.103 334.01C124.916 332.085 125.405 324.843 125.405 324.843L132.616 324.369L134.068 301.741L118.178 307.99C118.178 307.99 113.915 330.16 112.463 333.048Z" fill="#FF6969"/>
<path d="M91.6229 399.221C87.0605 401.646 82.7466 404.511 78.7427 407.777C79.3763 410.015 80.1415 412.214 81.0346 414.362C86.4281 427.166 92.173 431.016 99.5527 430.955C98.4236 428.929 97.4284 426.832 96.5733 424.676C93.4411 416.547 91.7653 407.931 91.6229 399.221Z" fill="#263238" stroke="#263238" stroke-width="0.75" stroke-linecap="round" stroke-linejoin="round"/>
<path d="M115.962 386.6C115.549 386.598 115.144 386.485 114.789 386.273C114.434 386.061 114.143 385.757 113.946 385.393C113.667 384.866 113.608 384.25 113.779 383.678C113.951 383.107 114.34 382.625 114.862 382.338C115.229 382.139 144.962 363.713 169.592 350.619C169.857 350.477 170.149 350.389 170.448 350.36C170.748 350.331 171.051 350.362 171.339 350.45C171.627 350.538 171.895 350.682 172.127 350.873C172.359 351.065 172.552 351.3 172.693 351.566C172.835 351.832 172.922 352.123 172.951 352.423C172.98 352.722 172.95 353.025 172.862 353.313C172.774 353.601 172.63 353.869 172.439 354.101C172.247 354.334 172.012 354.526 171.746 354.667C147.132 367.746 117.414 386.157 117.047 386.356C116.713 386.53 116.339 386.614 115.962 386.6Z" fill="#263238" stroke="#263238" stroke-miterlimit="10"/>
<path d="M177.659 285.56C186.824 285.334 194.075 277.849 193.853 268.841C193.631 259.833 186.021 252.714 176.856 252.94C167.69 253.165 160.44 260.65 160.661 269.658C160.883 278.666 168.493 285.785 177.659 285.56Z" fill="#263238" stroke="#263238" stroke-width="0.75" stroke-linecap="round" stroke-linejoin="round"/>
<path d="M175.085 277.01H175.033C174.706 277.011 174.383 276.938 174.091 276.796C173.799 276.655 173.546 276.449 173.353 276.195L166.726 267.429C166.403 267.002 166.27 266.469 166.356 265.948C166.443 265.427 166.742 264.96 167.187 264.65C167.633 264.341 168.189 264.213 168.732 264.296C169.276 264.379 169.763 264.666 170.086 265.093L175.033 271.633L186.857 255.978C187.18 255.551 187.667 255.264 188.21 255.182C188.754 255.099 189.31 255.226 189.755 255.536C190.201 255.846 190.5 256.312 190.586 256.833C190.673 257.354 190.54 257.887 190.217 258.314L176.734 276.205C176.543 276.453 176.295 276.654 176.009 276.794C175.722 276.934 175.406 277.008 175.085 277.01Z" fill="white" stroke="#263238" stroke-linecap="round" stroke-linejoin="round"/>
<path d="M325.85 306.921C325.85 306.921 377.798 296.959 413.398 297.662L415.537 306.218C415.537 306.218 340.792 309.762 326.552 316.913L325.85 306.921Z" fill="#263238" stroke="#263238" stroke-width="0.75" stroke-linecap="round" stroke-linejoin="round"/>
<path d="M326.553 316.882L328.081 325.439C328.239 326.392 328.763 327.246 329.543 327.817C330.323 328.388 331.295 328.631 332.252 328.494C345.285 326.63 391.03 320.351 414.758 320.931C415.343 320.949 415.923 320.829 416.452 320.58C416.981 320.331 417.444 319.961 417.803 319.499C418.162 319.037 418.407 318.498 418.518 317.923C418.628 317.349 418.602 316.757 418.44 316.195L415.598 306.248" stroke="#263238" stroke-linecap="round" stroke-linejoin="round"/>
<path d="M136.986 301.772L136.696 266.477L138.453 230.19C138.466 229.843 138.374 229.5 138.189 229.206C138.005 228.911 137.735 228.68 137.417 228.541C137.098 228.403 136.745 228.363 136.404 228.428C136.063 228.494 135.749 228.66 135.504 228.906C128.934 235.629 117.689 245.805 114.358 254.147C110.034 264.949 104.916 318.12 104.916 318.12L136.986 301.772Z" fill="#263238" stroke="#263238" stroke-width="0.75" stroke-linecap="round" stroke-linejoin="round"/>
<path d="M96.2985 294.682H91.1801C88.5726 294.682 86.4589 296.796 86.4589 299.403V325.775C86.4589 328.382 88.5726 330.496 91.1801 330.496H96.2985C98.906 330.496 101.02 328.382 101.02 325.775V299.403C101.02 296.796 98.906 294.682 96.2985 294.682Z" fill="#263238" stroke="#263238" stroke-width="0.75" stroke-linecap="round" stroke-linejoin="round"/>
<path d="M99.5222 270.052C101.945 270.517 104.312 271.239 106.581 272.207C108.463 273.133 110.173 274.373 111.638 275.874L119.278 265.774C119.278 265.774 108.078 261.084 105.955 258.226L103.846 255.354L99.5222 270.052Z" fill="white"/>
<mask id="mask1_11_1127" style="mask-type:luminance" maskUnits="userSpaceOnUse" x="99" y="255" width="21" height="21">
<path d="M99.5222 270.052C101.945 270.517 104.312 271.239 106.581 272.207C108.463 273.133 110.173 274.373 111.638 275.874L119.278 265.774C119.278 265.774 108.078 261.084 105.955 258.226L103.846 255.354L99.5222 270.052Z" fill="white"/>
</mask>
<g mask="url(#mask1_11_1127)">
<g style="mix-blend-mode:multiply" opacity="0.5">
<path d="M105.939 258.226L103.968 255.491L103.739 255.644L99.5223 270.006C99.5223 270.006 100.332 270.159 101.478 270.434L112.402 262.52C110.015 261.475 107.828 260.022 105.939 258.226Z" fill="#FF6969"/>
</g>
</g>
<path d="M99.5222 270.052C101.945 270.517 104.312 271.239 106.581 272.207C108.463 273.133 110.173 274.373 111.638 275.874L119.278 265.774C119.278 265.774 108.078 261.084 105.955 258.226L103.846 255.354L99.5222 270.052Z" stroke="#263238" stroke-width="0.75" stroke-linecap="round" stroke-linejoin="round"/>
<path d="M115.657 261.481L106.321 273.383L107.589 277.432L121.814 262.657L115.657 261.481Z" fill="#FF6969" stroke="#263238" stroke-linecap="round" stroke-linejoin="round"/>
<path d="M100.714 227.852C94.4037 222.963 77.9635 226.08 74.7397 237.661C72.7534 244.796 73.8535 255.492 73.8535 255.492L92.5855 251.519L94.1134 253.826C97.1692 258.41 103.785 255.354 105.496 253.826C106.428 253.017 106.367 250.633 106.123 248.662L106.871 248.494C106.871 248.494 107.009 232.757 100.714 227.852Z" fill="#263238" stroke="#263238" stroke-width="0.75" stroke-linecap="round" stroke-linejoin="round"/>
<path d="M93.7161 250.113C85.4943 249.197 77.172 249.988 69.2697 252.436C57.0466 256.531 55.1672 260.075 63.9221 259.861C72.6769 259.648 93.7161 250.113 93.7161 250.113Z" fill="#263238" stroke="#263238" stroke-width="0.75" stroke-linecap="round" stroke-linejoin="round"/>
<path d="M78.6205 245.667C80.0465 245.667 81.2026 244.087 81.2026 242.138C81.2026 240.188 80.0465 238.608 78.6205 238.608C77.1944 238.608 76.0383 240.188 76.0383 242.138C76.0383 244.087 77.1944 245.667 78.6205 245.667Z" fill="#FF6969"/>
<path d="M136.696 266.477C136.696 266.477 119.966 262.229 114.817 266.141C109.668 270.052 108.354 276.515 110.004 284.353C111.654 292.191 115.672 312.803 115.672 312.803L136.986 301.771L136.696 266.477Z" fill="#263238" stroke="#263238" stroke-width="0.75" stroke-linecap="round" stroke-linejoin="round"/>
<path d="M110.141 309.518C110.141 309.518 109.24 317.433 108.185 318.548C107.131 319.663 79.3235 296.302 77.6275 294.102C75.9316 291.901 77.0928 284.048 77.6275 281.588C78.1623 279.128 77.2608 277.784 74.5717 279.48C71.8826 281.176 72.6007 288.234 72.6007 288.234C72.6007 288.234 64.3959 286.264 62.7611 286.034C61.1262 285.805 59.7053 287.837 59.9498 289.457C60.1942 291.076 62.3486 291.214 62.3486 291.214C61.7974 293.559 61.9516 296.015 62.7917 298.273C64.2279 301.237 65.8474 303.101 68.9032 303.834C72.0561 304.326 75.2481 304.521 78.4373 304.415C78.4373 304.415 92.6468 317.952 96.7721 323.009C100.897 328.067 109.591 334.942 113.915 333.705C118.239 332.467 122.364 310.878 122.364 310.878L110.141 309.518Z" fill="white"/>
<mask id="mask2_11_1127" style="mask-type:luminance" maskUnits="userSpaceOnUse" x="59" y="278" width="64" height="56">
<path d="M110.141 309.518C110.141 309.518 109.24 317.433 108.185 318.548C107.131 319.663 79.3235 296.302 77.6275 294.102C75.9316 291.901 77.0928 284.048 77.6275 281.588C78.1623 279.128 77.2608 277.784 74.5717 279.48C71.8826 281.176 72.6007 288.234 72.6007 288.234C72.6007 288.234 64.3959 286.264 62.7611 286.034C61.1262 285.805 59.7053 287.837 59.9498 289.457C60.1942 291.076 62.3486 291.214 62.3486 291.214C61.7974 293.559 61.9516 296.015 62.7917 298.273C64.2279 301.237 65.8474 303.101 68.9032 303.834C72.0561 304.326 75.2481 304.521 78.4373 304.415C78.4373 304.415 92.6468 317.952 96.7721 323.009C100.897 328.067 109.591 334.942 113.915 333.705C118.239 332.467 122.364 310.878 122.364 310.878L110.141 309.518Z" fill="white"/>
</mask>
<g mask="url(#mask2_11_1127)">
<g style="mix-blend-mode:multiply" opacity="0.5">
<path d="M108.185 318.548L116.314 321.252C116.571 322.957 116.211 324.698 115.298 326.161C114.384 327.624 112.978 328.712 111.333 329.228C107.742 330.42 101.294 326.34 96.7107 322.903L96.8482 323.071C101.05 328.143 109.667 335.004 113.991 333.766C118.315 332.528 122.441 310.939 122.441 310.939L110.141 309.411C110.141 309.411 109.239 317.433 108.185 318.548Z" fill="#FF6969"/>
</g>
</g>
<path d="M110.141 309.518C110.141 309.518 109.24 317.433 108.185 318.548C107.131 319.663 79.3235 296.302 77.6275 294.102C75.9316 291.901 77.0928 284.048 77.6275 281.588C78.1623 279.128 77.2608 277.784 74.5717 279.48C71.8826 281.176 72.6008 288.234 72.6008 288.234C72.6008 288.234 64.3959 286.264 62.7611 286.034C61.1262 285.805 59.7053 287.837 59.9498 289.457C60.1942 291.076 62.3486 291.214 62.3486 291.214C61.7974 293.559 61.9516 296.015 62.7917 298.273C64.2279 301.237 65.8474 303.101 68.9032 303.834C72.0561 304.326 75.2481 304.521 78.4373 304.415C78.4373 304.415 92.6468 317.952 96.7721 323.009C100.897 328.067 109.591 334.942 113.915 333.705C118.239 332.467 122.364 310.878 122.364 310.878L110.141 309.518Z" stroke="#263238" stroke-width="0.75" stroke-linecap="round" stroke-linejoin="round"/>
<path d="M82.3486 298.395L78.4371 304.476L80.4387 305.836L84.4418 300.106L82.3486 298.395Z" fill="#263238" stroke="#263238" stroke-miterlimit="10"/>
<path d="M81.0043 304.125C81.8481 304.125 82.5322 303.441 82.5322 302.597C82.5322 301.753 81.8481 301.069 81.0043 301.069C80.1604 301.069 79.4764 301.753 79.4764 302.597C79.4764 303.441 80.1604 304.125 81.0043 304.125Z" fill="white" stroke="#263238" stroke-width="0.75" stroke-linecap="round" stroke-linejoin="round"/>
<path d="M77.2607 257.447C77.2607 257.447 78.1927 259.754 79.7512 263.803C81.3096 267.852 89.6825 276.393 93.7773 276.882C97.872 277.371 102.777 262.489 103.556 259.418C103.816 258.41 104.075 256.79 104.075 256.79C104.075 256.79 109.224 254.361 108.033 251.427C106.841 248.494 104.427 247.149 103.281 248.051C102.135 248.952 101.936 252.757 100.225 252.787C98.5137 252.818 97.5817 252.283 96.0691 250.266C94.5565 248.249 78.8803 252.436 77.2607 257.447Z" fill="white"/>
<mask id="mask3_11_1127" style="mask-type:luminance" maskUnits="userSpaceOnUse" x="77" y="247" width="32" height="30">
<path d="M77.2607 257.447C77.2607 257.447 78.1927 259.754 79.7512 263.803C81.3096 267.852 89.6825 276.393 93.7773 276.882C97.872 277.371 102.777 262.489 103.556 259.418C103.816 258.41 104.075 256.79 104.075 256.79C104.075 256.79 109.224 254.361 108.033 251.427C106.841 248.494 104.427 247.149 103.281 248.051C102.135 248.952 101.936 252.757 100.225 252.787C98.5137 252.818 97.5817 252.283 96.0691 250.266C94.5565 248.249 78.8803 252.436 77.2607 257.447Z" fill="white"/>
</mask>
<g mask="url(#mask3_11_1127)">
<path opacity="0.5" d="M96.0385 250.266C94.5106 248.265 78.8802 252.451 77.2606 257.447L78.1468 259.709C84.1216 256.105 90.6145 253.441 97.3983 251.809C96.8915 251.345 96.4356 250.827 96.0385 250.266Z" fill="#FF6969"/>
<g style="mix-blend-mode:multiply">
<path opacity="0.5" d="M107.834 251.015C106.581 248.387 104.366 247.195 103.25 248.051C102.551 248.963 102.033 250 101.722 251.107C103.752 250.879 105.799 250.849 107.834 251.015Z" fill="#FF6969"/>
</g>
</g>
<path d="M77.2607 257.447C77.2607 257.447 78.1927 259.754 79.7512 263.803C81.3096 267.852 89.6825 276.393 93.7773 276.882C97.872 277.371 102.777 262.489 103.556 259.418C103.816 258.41 104.075 256.79 104.075 256.79C104.075 256.79 109.224 254.361 108.033 251.427C106.841 248.494 104.427 247.149 103.281 248.051C102.135 248.952 101.936 252.757 100.225 252.787C98.5137 252.818 97.5817 252.283 96.0691 250.266C94.5565 248.249 78.8803 252.436 77.2607 257.447Z" stroke="#263238" stroke-width="0.75" stroke-linecap="round" stroke-linejoin="round"/>
<path d="M82.8069 258.547C83.0819 259.479 82.9902 260.335 82.6235 260.442C82.2568 260.549 81.7221 259.877 81.447 258.914C81.172 257.951 81.2637 257.126 81.6304 257.019C81.9971 256.913 82.5318 257.646 82.8069 258.547Z" fill="#263238" stroke="#263238" stroke-miterlimit="10"/>
<path d="M79.9651 255.95C82.1042 255.339 83.0209 256.943 83.2807 258.425L83.6779 260.182L85.0072 266.981L87.024 266.126" stroke="#263238" stroke-width="0.5" stroke-linecap="round" stroke-linejoin="round"/>
<path d="M88.6742 256.469C89.1389 255.96 89.7173 255.567 90.3624 255.322C91.0076 255.078 91.7012 254.989 92.387 255.064" stroke="#263238" stroke-width="0.5" stroke-linecap="round" stroke-linejoin="round"/>
<path d="M90.4464 252.237C89.5772 252.419 88.7795 252.849 88.1502 253.476C87.5209 254.102 87.0872 254.898 86.9017 255.767" stroke="#263238" stroke-width="0.5" stroke-linecap="round" stroke-linejoin="round"/>
<path d="M88.8423 268.326C88.8423 268.326 93.2732 267.44 93.6246 264.262" stroke="#263238" stroke-width="0.5" stroke-linecap="round" stroke-linejoin="round"/>
<path d="M126.459 320.977L104.091 314.743C104.091 314.743 106.062 276.546 109.515 270.083C114.893 260.045 127.223 264.567 129.546 277.188C131.715 289.105 126.459 320.977 126.459 320.977Z" fill="#FF6969" stroke="#263238" stroke-linecap="round" stroke-linejoin="round"/>
<path d="M104.625 310.496C104.625 310.496 116.849 313.307 124.29 315.752" stroke="#263238" stroke-width="0.5" stroke-linecap="round" stroke-linejoin="round"/>
<path d="M123.984 263.406C123.984 263.406 131.257 263.971 136.009 267.883" stroke="#FF6969" stroke-width="0.5" stroke-linecap="round" stroke-linejoin="round"/>
<path d="M252.144 361.115C252.144 361.115 219.569 372.605 216.59 375.737C213.61 378.869 213.916 391.092 220.944 397.036C227.973 402.979 278.072 389.503 313.886 385.577C349.7 381.65 428.326 375.874 460.412 374.316C492.497 372.757 507.089 376.99 509.9 366.982C512.712 356.974 512.36 346.279 506.249 344.109C500.137 341.94 388.784 324.109 252.144 361.115Z" fill="#263238" stroke="#263238" stroke-width="0.75" stroke-linecap="round" stroke-linejoin="round"/>
<path d="M214.267 382.414C214.267 382.414 215.795 395.661 223.939 397.693C232.082 399.725 328.86 381.39 385.896 379.358C442.932 377.326 492.849 375.798 492.849 375.798" stroke="white" stroke-width="0.5" stroke-linecap="round" stroke-linejoin="round"/>
<path d="M261.541 389.137C299.371 379.969 377.187 367.013 508.128 370.695" stroke="white" stroke-width="0.5" stroke-linecap="round" stroke-linejoin="round"/>
<path d="M230.524 397.204C230.524 397.204 239.218 395.095 252.434 391.49" stroke="white" stroke-width="0.5" stroke-linecap="round" stroke-linejoin="round"/>
<path d="M238.5 398.717C238.911 404.396 238.757 410.103 238.041 415.753" stroke="white" stroke-width="0.5" stroke-linecap="round" stroke-linejoin="round"/>
<path d="M237.109 154.391C237.109 154.391 229.821 162.932 229.256 170.586" stroke="#263238" stroke-width="0.75" stroke-linecap="round" stroke-linejoin="round"/>
<path d="M228.492 176.759C228.492 176.759 223.007 264.017 237.522 356.883" stroke="#263238" stroke-width="0.75" stroke-linecap="round" stroke-linejoin="round"/>
<path d="M230.219 277.585C230.219 277.585 218.377 281.71 218.225 287.058C217.827 301.435 219.34 332.116 222.472 335.095C225.604 338.074 235.337 330.19 235.337 330.19C235.337 330.19 249.088 331.382 250.616 328.296C252.144 325.209 246.414 281.771 245.559 277.982C244.703 274.193 230.219 277.585 230.219 277.585Z" fill="#FF6969" stroke="#263238" stroke-linecap="round" stroke-linejoin="round"/>
<path d="M477.555 298.272C480.637 299.778 483.986 300.661 487.41 300.87C483.62 286.63 479.327 270.77 474.896 254.941C470.893 254.666 465.729 254.666 465.836 256.469C465.912 259.556 473.689 296.042 477.555 298.272Z" fill="#FF6969" stroke="#263238" stroke-linecap="round" stroke-linejoin="round"/>
<path d="M228.522 282.077C228.522 282.077 229.042 309.579 231.074 320.274" stroke="#263238" stroke-width="0.75" stroke-linecap="round" stroke-linejoin="round"/>
<path d="M371.35 288.433C371.35 288.433 439.525 277.447 518.961 291.489" stroke="#263238" stroke-linecap="round" stroke-linejoin="round"/>
<path d="M578.9 331.504C583.591 332.91 588.205 334.392 592.651 335.981" stroke="#263238" stroke-linecap="round" stroke-linejoin="round"/>
<path d="M456.5 310.756C456.5 310.756 510.557 314.041 562.322 326.982" stroke="#263238" stroke-linecap="round" stroke-linejoin="round"/>
<path d="M291.976 436.639C336.486 429.837 381.707 429.03 426.431 434.24" stroke="#263238" stroke-linecap="round" stroke-linejoin="round"/>
<path d="M286.384 429.443C286.384 429.443 318.378 425.439 328.783 424.645" stroke="#263238" stroke-linecap="round" stroke-linejoin="round"/>
<path d="M500.656 132.694C505.24 133.351 509.824 134.222 513.979 135.216" stroke="#263238" stroke-linecap="round" stroke-linejoin="round"/>
<path d="M434.789 131.182C453.615 129.852 472.515 129.98 491.321 131.564" stroke="#263238" stroke-linecap="round" stroke-linejoin="round"/>
<path d="M188.278 316.271C188.278 316.271 233.931 294.652 299.982 288.647" stroke="#263238" stroke-linecap="round" stroke-linejoin="round"/>
<path d="M265.162 276.622C265.162 276.622 292.801 269.426 334.849 267.012" stroke="#263238" stroke-linecap="round" stroke-linejoin="round"/>
<path d="M405.004 260.043L402.064 253.466C401.724 252.703 401.702 251.833 402.004 251.047C402.307 250.261 402.908 249.623 403.677 249.273L414.14 244.538C412.313 243.092 410.164 242.102 407.868 241.647C405.572 241.192 403.195 241.286 400.93 241.921C398.666 242.556 396.579 243.714 394.839 245.301C393.1 246.887 391.757 248.857 390.922 251.049L331.745 255.718C330.153 252.965 327.705 250.807 324.765 249.567C321.825 248.327 318.551 248.071 315.431 248.837C312.312 249.603 309.513 251.35 307.452 253.818C305.392 256.285 304.18 259.341 303.997 262.53L314.46 257.794C315.231 257.45 316.104 257.421 316.889 257.715C317.674 258.008 318.308 258.6 318.651 259.362L321.593 265.943C321.933 266.706 321.954 267.575 321.652 268.361C321.349 269.146 320.749 269.784 319.981 270.135L309.515 274.867C311.352 276.322 313.515 277.317 315.826 277.769C318.137 278.221 320.528 278.118 322.803 277.468C325.078 276.818 327.17 275.639 328.907 274.03C330.645 272.421 331.977 270.427 332.794 268.213L391.854 263.555C393.426 266.33 395.865 268.514 398.804 269.777C401.744 271.041 405.026 271.318 408.158 270.565C411.291 269.813 414.105 268.072 416.179 265.604C418.254 263.136 419.477 260.074 419.665 256.876L409.199 261.608C408.428 261.953 407.554 261.983 406.768 261.69C405.982 261.397 405.348 260.805 405.004 260.043Z" fill="#FF6969"/>
<path d="M385.879 255.059L338.305 258.569C337.44 258.633 336.79 259.385 336.854 260.25L337.096 263.527C337.16 264.391 337.913 265.041 338.778 264.977L386.352 261.468C387.217 261.404 387.866 260.651 387.802 259.786L387.56 256.51C387.496 255.645 386.744 254.996 385.879 255.059Z" fill="#D24545"/>
<path d="M187.529 429.275C193.077 439.212 202.031 446.809 212.739 450.665" stroke="#263238" stroke-linecap="round" stroke-linejoin="round"/>
<path d="M186.001 436.15C186.001 436.15 192.877 446.845 202.044 451.429" stroke="#263238" stroke-linecap="round" stroke-linejoin="round"/>
<path d="M411.366 397.952C411.366 397.952 415.95 419.343 434.284 428.51" stroke="#263238" stroke-linecap="round" stroke-linejoin="round"/>
<path d="M413.658 417.051C417.291 422.373 422.311 426.6 428.173 429.274" stroke="#263238" stroke-linecap="round" stroke-linejoin="round"/>
<path d="M111.379 458.244C111.379 458.244 115.962 465.883 132.005 465.883" stroke="#263238" stroke-linecap="round" stroke-linejoin="round"/>
<path d="M108.323 462.827C114.168 467.688 121.372 470.623 128.95 471.23" stroke="#263238" stroke-linecap="round" stroke-linejoin="round"/>
<path d="M314.864 443.973C274.286 446.18 234.005 452.206 194.558 461.971L195.505 463.392C195.505 463.392 229.119 456.257 291.243 471.536C353.367 486.815 357.462 499.038 425.698 499.038C493.934 499.038 560.153 482.751 560.153 482.751L551.871 478.167C490.603 452.239 406.63 438.839 314.864 443.973Z" fill="#C0C1C0"/>
<path opacity="0.5" d="M314.864 443.973C274.286 446.18 234.005 452.206 194.558 461.971L195.505 463.392C195.505 463.392 229.119 456.257 291.243 471.536C353.367 486.815 357.462 499.038 425.698 499.038C493.934 499.038 560.153 482.751 560.153 482.751L551.871 478.167C490.603 452.239 406.63 438.839 314.864 443.973Z" fill="white"/>
<path d="M165.375 478.931C165.375 478.931 245.589 466.708 315.108 513.308" stroke="#263238" stroke-linecap="round" stroke-linejoin="round"/>
<path d="M249.409 496.502C249.409 496.502 282.259 506.433 302.121 527.824" stroke="#263238" stroke-linecap="round" stroke-linejoin="round"/>
<path d="M443.452 457.54C443.452 457.54 490.053 462.124 532.07 487.334" stroke="#263238" stroke-linecap="round" stroke-linejoin="round"/>
<path d="M588.755 497.021C597.147 502.157 605.135 507.923 612.651 514.271" stroke="#263238" stroke-linecap="round" stroke-linejoin="round"/>
<path d="M42.0886 533.064C97.7805 485.699 198.408 450.558 314.864 443.973C421.16 437.937 517.035 456.975 579.19 491.337" stroke="#263238" stroke-linecap="round" stroke-linejoin="round"/>
<path d="M381.572 456.776C381.572 456.776 429.701 459.068 461.787 469.764" stroke="#263238" stroke-linecap="round" stroke-linejoin="round"/>
<path d="M163.358 94.0537C163.358 94.0537 161.83 72.9229 130.89 72.1589C99.9501 71.395 108.231 93.305 99.9348 98.5916C91.6383 103.878 89.3618 95.5358 81.05 100.853C72.7382 106.17 76.4663 116.712 69.7283 118.225C62.9903 119.738 53.8687 111.426 45.5722 116.697C37.2758 121.968 37.2605 126.506 33.4866 126.506C29.7127 126.506 22.1649 123.45 17.6423 126.506C13.1197 129.562 7.81791 133.26 7.81791 133.26H198.805C198.805 133.26 201.066 126.46 192.693 121.938C184.321 117.415 180.608 121.174 177.598 117.354C174.588 113.534 186.001 103.878 163.358 94.0537Z" fill="white"/>
<path d="M276.835 13.1821C276.835 13.1821 275.918 0.470033 257.308 0.0116637C238.698 -0.446705 243.679 12.739 238.683 15.9171C233.687 19.0951 232.327 14.0989 227.331 17.2769C222.334 20.4549 224.611 26.811 220.516 27.7124C216.422 28.6139 210.982 23.633 205.986 26.811C200.99 29.989 200.99 32.7087 198.713 32.7087C196.437 32.7087 191.899 30.9057 189.179 32.7087C186.459 34.5116 183.281 36.8034 183.281 36.8034H298.179C298.179 36.8034 299.539 32.7087 294.543 29.989C289.547 27.2694 287.285 29.5306 285.467 27.2693C283.649 25.0081 290.463 19.0951 276.835 13.1821Z" fill="white"/>
<path opacity="0.7" d="M163.358 94.0537C163.358 94.0537 161.83 72.9229 130.89 72.1589C99.9501 71.395 108.231 93.305 99.9348 98.5916C91.6383 103.878 89.3618 95.5358 81.05 100.853C72.7382 106.17 76.4663 116.712 69.7283 118.225C62.9903 119.738 53.8687 111.426 45.5722 116.697C37.2758 121.968 37.2605 126.506 33.4866 126.506C29.7127 126.506 22.1649 123.45 17.6423 126.506C13.1197 129.562 7.81791 133.26 7.81791 133.26H198.805C198.805 133.26 201.066 126.46 192.693 121.938C184.321 117.415 180.608 121.174 177.598 117.354C174.588 113.534 186.001 103.878 163.358 94.0537Z" fill="white"/>
<path opacity="0.8" d="M276.881 13.1821C276.881 13.1821 275.964 0.470033 257.355 0.0116637C238.745 -0.446705 243.726 12.739 238.73 15.9171C233.733 19.0951 232.373 14.0989 227.377 17.2769C222.381 20.4549 224.658 26.811 220.563 27.7124C216.468 28.6139 211.029 23.633 206.033 26.811C201.036 29.989 201.036 32.7087 198.76 32.7087C196.483 32.7087 191.945 30.9057 189.226 32.7087C186.506 34.5116 183.328 36.8034 183.328 36.8034H298.226C298.226 36.8034 299.586 32.7087 294.589 29.989C289.593 27.2694 287.332 29.5306 285.514 27.2693C283.696 25.0081 290.51 19.0951 276.881 13.1821Z" fill="white"/>
</svg>
