<svg width="641" height="605" viewBox="0 0 641 605" fill="none" xmlns="http://www.w3.org/2000/svg">
<path d="M615.035 115.731C608.824 112.31 606.008 115.159 603.748 112.31C601.489 109.46 609.959 102.065 592.99 94.6705C592.99 94.6705 591.865 78.7371 568.715 78.1653C545.565 77.5934 551.805 94.0987 545.594 98.082C539.383 102.065 537.691 95.8439 531.481 99.7878C525.27 103.732 528.097 111.738 523.021 112.872C517.945 114.006 511.157 107.754 504.947 111.738C498.736 115.721 498.736 119.133 495.919 119.133C493.102 119.133 487.449 116.855 484.065 119.133C480.681 121.41 476.72 124.26 476.72 124.26H619.514C619.514 124.26 621.246 119.143 615.035 115.731Z" fill="white"/>
<path opacity="0.5" d="M615.035 115.731C608.824 112.31 606.008 115.159 603.748 112.31C601.489 109.46 609.959 102.065 592.99 94.6705C592.99 94.6705 591.865 78.7371 568.715 78.1653C545.565 77.5934 551.805 94.0987 545.594 98.082C539.383 102.065 537.691 95.8439 531.481 99.7878C525.27 103.732 528.097 111.738 523.021 112.872C517.945 114.006 511.157 107.754 504.947 111.738C498.736 115.721 498.736 119.133 495.919 119.133C493.102 119.133 487.449 116.855 484.065 119.133C480.681 121.41 476.72 124.26 476.72 124.26H619.514C619.514 124.26 621.246 119.143 615.035 115.731Z" fill="#DEEEF6"/>
<path opacity="0.5" d="M138.938 139.815C132.701 136.417 129.862 139.242 127.597 136.417C125.331 133.592 133.834 126.208 116.828 118.838C116.828 118.838 115.696 102.966 92.4391 102.392C69.1825 101.819 75.4337 118.265 69.1965 122.237C62.9593 126.208 61.2671 119.971 55.0299 123.943C48.7927 127.914 51.6177 135.844 46.5272 136.976C41.4368 138.109 34.6122 131.872 28.3471 135.844C22.0819 139.815 22.1099 143.214 19.285 143.214C16.46 143.214 10.7682 140.948 7.36995 143.214C3.97166 145.479 3.51667e-06 148.318 3.51667e-06 148.318H143.469C143.469 148.318 145.176 143.214 138.938 139.815Z" fill="white"/>
<path opacity="0.5" d="M159.804 41.4243C165.435 38.3026 167.999 40.8976 170.044 38.3026C172.09 35.7076 164.413 28.9247 179.767 22.1545C179.767 22.1545 180.79 7.57372 201.788 7.04701C222.786 6.5203 217.142 21.6278 222.773 25.2762C228.405 28.9247 229.933 23.1951 235.564 26.8435C241.196 30.4919 238.645 37.7759 243.241 38.8165C247.838 39.8571 253.999 34.1275 259.656 37.7759C265.313 41.4243 265.288 44.5461 267.838 44.5461C270.389 44.5461 275.528 42.4649 278.596 44.5461C281.665 46.6272 285.251 49.235 285.251 49.235H155.713C155.713 49.235 154.172 44.546 159.804 41.4243Z" fill="white"/>
<path d="M492.536 608.276H580.919C579.227 597.466 572.277 599.368 571.354 582.614C570.892 574.224 578.71 563.735 578.024 552.659C577.465 543.527 568.473 534.171 567.774 523.725C567.144 514.299 574.766 503.838 574.081 493.685C573.367 484.092 564.291 474.876 563.438 464.891C562.655 455.102 570.179 444.599 569.284 434.754C568.389 424.909 559.117 415.86 558.096 406.155C557.075 396.184 564.361 385.444 563.242 375.906C562.068 365.767 552.502 357.013 551.202 347.671C549.803 337.28 556.53 326.176 554.95 317.198C553.006 306.206 542.769 298.249 540.615 290.138C536.602 275.02 537.105 260.462 532.364 259.511C527.316 258.504 526.155 272.783 522.323 288.739C520.393 296.752 510.394 304.878 508.744 315.884C507.415 324.792 514.492 335.63 513.331 345.979C512.296 355.251 502.968 364.159 502.059 374.242C501.206 383.723 508.772 394.17 508.031 404.085C507.304 413.721 498.241 422.909 497.64 432.698C497.039 442.487 504.814 452.724 504.283 462.388C503.737 472.289 494.857 481.645 494.396 491.168C493.92 501.251 501.877 511.418 501.486 520.76C501.052 531.123 492.298 540.604 491.976 549.666C491.585 560.658 499.654 570.797 499.402 579.174C498.871 597.354 490.55 593.564 490.256 608.193L492.536 608.276Z" fill="#FF6969"/>
<path d="M530.476 288.557V604.193" stroke="black" stroke-miterlimit="10"/>
<path d="M544.279 321.645L529.889 334.078L518.114 318.373" stroke="black" stroke-miterlimit="10"/>
<path d="M544.279 376.591L529.889 389.01L518.114 373.319" stroke="black" stroke-miterlimit="10"/>
<path d="M544.279 428.251L529.889 440.684L518.114 424.979" stroke="black" stroke-miterlimit="10"/>
<path d="M544.279 489.742L529.889 502.16L518.114 486.469" stroke="black" stroke-miterlimit="10"/>
<path d="M544.279 551.876L529.889 564.295L518.114 548.604" stroke="black" stroke-miterlimit="10"/>
<path d="M432.331 608.277H500.563C499.248 599.886 493.892 601.396 493.179 588.474C492.815 581.957 498.843 573.902 498.325 565.343C497.892 558.351 490.955 551.065 490.41 542.968C489.921 535.696 495.85 527.585 495.277 519.781C494.731 512.369 487.697 505.265 487.068 497.559C486.438 489.854 492.27 481.883 491.585 474.289C490.899 466.695 483.725 459.703 482.97 452.221C482.187 444.515 487.809 436.236 486.942 428.852C486.033 421.035 478.649 414.28 477.656 407.078C476.537 399.051 481.767 390.478 480.537 383.556C479.04 375.067 471.139 368.914 469.489 362.663C466.384 350.999 466.776 339.742 463.112 339.014C459.21 338.231 458.315 349.251 455.364 361.586C453.882 367.767 446.148 374.046 444.876 382.563C443.855 389.443 449.309 397.806 448.414 405.792C447.617 412.952 440.429 419.776 439.715 427.608C439.058 434.922 444.904 442.991 444.33 450.641C443.771 458.08 436.793 465.171 436.303 472.723C435.814 480.274 441.897 488.19 441.435 495.643C440.974 503.097 434.163 510.509 433.814 517.865C433.436 525.641 439.576 533.486 439.282 540.702C438.946 548.702 432.192 556.086 431.94 563.078C431.632 571.553 437.869 579.398 437.674 585.845C437.254 599.83 430.835 596.963 430.611 608.221L432.331 608.277Z" fill="#FF6969"/>
<path d="M461.629 361.488V605.13" stroke="black" stroke-miterlimit="10"/>
<path d="M472.272 387.024L461.168 396.618L452.078 384.493" stroke="black" stroke-miterlimit="10"/>
<path d="M472.272 429.426L461.168 439.019L452.078 426.908" stroke="black" stroke-miterlimit="10"/>
<path d="M472.272 469.31L461.168 478.904L452.078 466.793" stroke="black" stroke-miterlimit="10"/>
<path d="M472.272 516.775L461.168 526.368L452.078 514.243" stroke="black" stroke-miterlimit="10"/>
<path d="M472.272 564.742L461.168 574.322L452.078 562.211" stroke="black" stroke-miterlimit="10"/>
<path d="M360.941 511.528V228.785H375.862V511.528" fill="#2E353A"/>
<path d="M360.941 511.528V228.785H375.862V511.528" stroke="#2E353A" stroke-linecap="round" stroke-linejoin="round"/>
<path d="M360.696 618.793V336.05H375.617V618.793" fill="#2E353A"/>
<path d="M360.696 618.793V336.05H375.617V618.793" stroke="#2E353A" stroke-linecap="round" stroke-linejoin="round"/>
<path d="M353.487 511.528V228.785H368.409V511.528" fill="#FF6969"/>
<path d="M353.487 511.528V228.785H368.409V511.528" stroke="#2E353A" stroke-linecap="round" stroke-linejoin="round"/>
<path d="M353.242 618.793V336.05H368.164V618.793" fill="#FF6969"/>
<path d="M353.242 618.793V336.05H368.164V618.793" stroke="#2E353A" stroke-linecap="round" stroke-linejoin="round"/>
<g style="mix-blend-mode:multiply" opacity="0.3">
<path d="M368.409 228.785H353.487V262.348H368.409V228.785Z" fill="#2E353A"/>
</g>
<path d="M417.159 118.403H306.596L354.787 236.77H465.365V166.595C465.365 160.265 464.118 153.997 461.695 148.149C459.272 142.302 455.721 136.988 451.245 132.513C446.768 128.038 441.454 124.489 435.606 122.068C429.757 119.647 423.489 118.401 417.159 118.403Z" fill="#FF6969" stroke="#2E353A" stroke-linecap="round" stroke-linejoin="round"/>
<g style="mix-blend-mode:multiply" opacity="0.3">
<path d="M346.355 216.045L354.745 236.77H465.365V166.595C465.365 165.532 465.365 164.469 465.253 163.42H346.382L346.355 216.045Z" fill="black"/>
</g>
<path d="M416.348 163.42H404.713" stroke="#2E353A" stroke-linecap="round" stroke-linejoin="round"/>
<path d="M465.253 163.42H430.039" stroke="#2E353A" stroke-linecap="round" stroke-linejoin="round"/>
<path d="M306.596 118.403C319.381 118.403 331.642 123.482 340.682 132.522C349.723 141.563 354.801 153.824 354.801 166.609V236.784H258.391V166.595C258.394 153.812 263.475 141.555 272.515 132.517C281.554 123.48 293.814 118.403 306.596 118.403Z" fill="#2E353A" stroke="#2E353A" stroke-linecap="round" stroke-linejoin="round"/>
<path d="M354.787 228.785H271.718V236.77H354.787V228.785Z" fill="#FF6969" stroke="#2E353A" stroke-linecap="round" stroke-linejoin="round"/>
<path d="M354.787 228.785H182.873V236.77H354.787V228.785Z" fill="#FF6969" stroke="#2E353A" stroke-linecap="round" stroke-linejoin="round"/>
<path opacity="0.3" d="M354.787 228.785H271.718V236.77H354.787V228.785Z" fill="black"/>
<path d="M424.347 89.8744H389.847V114.11H424.347V89.8744Z" fill="#2E353A" stroke="#2E353A" stroke-linecap="round" stroke-linejoin="round"/>
<path d="M392.644 89.8744H385.19V165.392H392.644V89.8744Z" fill="white" stroke="#2E353A" stroke-linecap="round" stroke-linejoin="round"/>
<path d="M388.91 175.643C393.544 175.643 397.301 171.886 397.301 167.252C397.301 162.618 393.544 158.861 388.91 158.861C384.276 158.861 380.519 162.618 380.519 167.252C380.519 171.886 384.276 175.643 388.91 175.643Z" fill="#2E353A" stroke="#2E353A" stroke-linecap="round" stroke-linejoin="round"/>
<path d="M262.371 169.695C283.942 173.075 321.027 177.673 353.175 175.597" stroke="white" stroke-linecap="round" stroke-linejoin="round" stroke-dasharray="2 4"/>
<path d="M244.178 166.569C244.178 166.569 251.199 167.991 262.389 169.748" stroke="#2E353A" stroke-linecap="round" stroke-linejoin="round" stroke-dasharray="2 4"/>
<path d="M237.355 168.245L240.379 132.29L136.182 140.143L237.355 168.245Z" fill="white" stroke="#2E353A" stroke-width="1.2629" stroke-linecap="round" stroke-linejoin="round"/>
<path d="M234.803 138.339L237.355 168.245L136.182 140.143L234.803 138.339Z" fill="#FF9696" stroke="#2E353A" stroke-width="1.2629" stroke-linecap="round" stroke-linejoin="round"/>
<path d="M234.803 138.339L223.878 156.247L136.182 140.143L234.803 138.339Z" fill="white" stroke="#2E353A" stroke-width="1.2629" stroke-linecap="round" stroke-linejoin="round"/>
<path d="M240.379 132.29L252.082 122.424L136.182 140.143L240.379 132.29Z" fill="white" stroke="#2E353A" stroke-width="1.2629" stroke-linecap="round" stroke-linejoin="round"/>
<path d="M217.003 169.424L220.751 170.323" stroke="#2E353A" stroke-linecap="round" stroke-linejoin="round"/>
<path d="M196.554 164.518L209.105 167.523" stroke="#2E353A" stroke-linecap="round" stroke-linejoin="round"/>
<path d="M209.492 244.251L198.335 209.954L301.584 193.807L209.492 244.251Z" fill="white" stroke="#2E353A" stroke-width="1.2629" stroke-linecap="round" stroke-linejoin="round"/>
<path d="M205.143 214.563L209.492 244.252L301.584 193.807L205.143 214.563Z" fill="#FF9696" stroke="#2E353A" stroke-width="1.2629" stroke-linecap="round" stroke-linejoin="round"/>
<path d="M205.143 214.563L219.868 229.494L301.584 193.807L205.143 214.563Z" fill="white" stroke="#2E353A" stroke-width="1.2629" stroke-linecap="round" stroke-linejoin="round"/>
<path d="M198.335 209.954L184.693 203.01L301.584 193.807L198.335 209.954Z" fill="white" stroke="#2E353A" stroke-width="1.2629" stroke-linecap="round" stroke-linejoin="round"/>
<path d="M244.42 232.183L252.369 227.685" stroke="#2E353A" stroke-linecap="round" stroke-linejoin="round"/>
<path d="M216.501 247.986L236.484 236.676" stroke="#2E353A" stroke-linecap="round" stroke-linejoin="round"/>
<path d="M196.982 245.983C196.982 245.983 124.176 284.374 132.044 358.287C139.912 432.199 218.343 411.096 220.826 373.523C223.309 335.95 160.468 341.687 157.552 377.93C154.637 414.173 212.271 455.719 267.661 440.641C313.688 428.109 423.511 333.895 498.171 294.827C498.171 294.827 551.416 259.593 643.002 233.725" stroke="#2E353A" stroke-linecap="round" stroke-linejoin="round" stroke-dasharray="2 4"/>
<path d="M620.595 515.316H643.907" stroke="#2E353A" stroke-linecap="round" stroke-linejoin="round"/>
<path d="M620.595 549.802H643.907" stroke="#2E353A" stroke-linecap="round" stroke-linejoin="round"/>
<path d="M129.73 548.879H617.798V516.239H129.73" fill="#F1ECE8"/>
<path d="M129.73 548.879H617.798V516.239H129.73" stroke="#2E353A" stroke-linecap="round" stroke-linejoin="round"/>
<path d="M163.657 609.014V444.805C163.658 444.402 163.74 444.004 163.898 443.633C164.057 443.263 164.289 442.929 164.58 442.651L177.334 430.638C177.909 430.101 178.672 429.813 179.458 429.837C180.244 429.86 180.989 430.194 181.53 430.764L192.718 442.665C193.225 443.219 193.509 443.942 193.515 444.693V609.014" fill="#2E353A"/>
<path d="M163.657 609.014V444.805C163.658 444.402 163.74 444.004 163.898 443.633C164.057 443.263 164.289 442.929 164.58 442.651L177.334 430.638C177.909 430.101 178.672 429.813 179.458 429.837C180.244 429.86 180.989 430.194 181.53 430.764L192.718 442.665C193.225 443.219 193.509 443.942 193.515 444.693V609.014" stroke="#2E353A" stroke-linecap="round" stroke-linejoin="round"/>
<path d="M160.035 610.412V444.805C160.035 444.401 160.118 444.001 160.279 443.63C160.44 443.26 160.676 442.927 160.972 442.651L173.726 430.638C174.01 430.371 174.343 430.162 174.708 430.023C175.072 429.885 175.461 429.819 175.85 429.831C176.24 429.843 176.623 429.931 176.979 430.091C177.334 430.252 177.655 430.48 177.922 430.764L189.11 442.665C189.623 443.216 189.908 443.941 189.907 444.693V610.412" fill="#F1ECE8"/>
<path d="M160.035 610.412V444.805C160.035 444.401 160.118 444.001 160.279 443.63C160.44 443.26 160.676 442.927 160.972 442.651L173.726 430.638C174.01 430.371 174.343 430.162 174.708 430.023C175.072 429.885 175.461 429.819 175.85 429.831C176.24 429.843 176.623 429.931 176.979 430.091C177.334 430.252 177.655 430.48 177.922 430.764L189.11 442.665C189.623 443.216 189.908 443.941 189.907 444.693V610.412" stroke="#2E353A" stroke-linecap="round" stroke-linejoin="round"/>
<path d="M271.2 609.014V444.805C271.2 444.402 271.282 444.004 271.441 443.634C271.599 443.263 271.832 442.929 272.123 442.651L284.891 430.638C285.175 430.371 285.508 430.162 285.873 430.023C286.237 429.885 286.625 429.819 287.015 429.831C287.405 429.843 287.788 429.931 288.144 430.091C288.499 430.252 288.819 430.48 289.086 430.764L300.274 442.665C300.788 443.216 301.073 443.941 301.071 444.693V609.014" fill="#2E353A"/>
<path d="M271.2 609.014V444.805C271.2 444.402 271.282 444.004 271.441 443.634C271.599 443.263 271.832 442.929 272.123 442.651L284.891 430.638C285.175 430.371 285.508 430.162 285.873 430.023C286.237 429.885 286.625 429.819 287.015 429.831C287.405 429.843 287.788 429.931 288.144 430.091C288.499 430.252 288.819 430.48 289.086 430.764L300.274 442.665C300.788 443.216 301.073 443.941 301.071 444.693V609.014" stroke="#2E353A" stroke-linecap="round" stroke-linejoin="round"/>
<path d="M268.179 610.412V444.805C268.179 444.401 268.262 444.001 268.423 443.63C268.584 443.26 268.82 442.926 269.116 442.651L281.87 430.638C282.445 430.101 283.208 429.813 283.994 429.837C284.78 429.86 285.525 430.194 286.066 430.764L297.254 442.665C297.771 443.214 298.061 443.939 298.065 444.693V610.412" fill="#F1ECE8"/>
<path d="M268.179 610.412V444.805C268.179 444.401 268.262 444.001 268.423 443.63C268.584 443.26 268.82 442.926 269.116 442.651L281.87 430.638C282.445 430.101 283.208 429.813 283.994 429.837C284.78 429.86 285.525 430.194 286.066 430.764L297.254 442.665C297.771 443.214 298.061 443.939 298.065 444.693V610.412" stroke="#2E353A" stroke-linecap="round" stroke-linejoin="round"/>
<path d="M379.344 609.014V444.805C379.344 444.401 379.427 444.001 379.588 443.63C379.749 443.26 379.985 442.926 380.281 442.651L393.035 430.638C393.609 430.101 394.373 429.813 395.159 429.837C395.945 429.86 396.689 430.194 397.23 430.764L408.418 442.665C408.936 443.214 409.225 443.939 409.229 444.693V610.412" fill="#2E353A"/>
<path d="M379.344 609.014V444.805C379.344 444.401 379.427 444.001 379.588 443.63C379.749 443.26 379.985 442.926 380.281 442.651L393.035 430.638C393.609 430.101 394.373 429.813 395.159 429.837C395.945 429.86 396.689 430.194 397.23 430.764L408.418 442.665C408.936 443.214 409.225 443.939 409.229 444.693V610.412" stroke="#2E353A" stroke-linecap="round" stroke-linejoin="round"/>
<path d="M376.337 610.412V444.805C376.338 444.402 376.419 444.004 376.578 443.634C376.737 443.263 376.969 442.929 377.26 442.651L390.028 430.638C390.312 430.371 390.645 430.162 391.01 430.023C391.374 429.885 391.762 429.819 392.152 429.831C392.542 429.843 392.925 429.931 393.281 430.091C393.636 430.252 393.957 430.48 394.224 430.764L405.412 442.665C405.925 443.216 406.21 443.941 406.209 444.693V610.412" fill="#F1ECE8"/>
<path d="M376.337 610.412V444.805C376.338 444.402 376.419 444.004 376.578 443.634C376.737 443.263 376.969 442.929 377.26 442.651L390.028 430.638C390.312 430.371 390.645 430.162 391.01 430.023C391.374 429.885 391.762 429.819 392.152 429.831C392.542 429.843 392.925 429.931 393.281 430.091C393.636 430.252 393.957 430.48 394.224 430.764L405.412 442.665C405.925 443.216 406.21 443.941 406.209 444.693V610.412" stroke="#2E353A" stroke-linecap="round" stroke-linejoin="round"/>
<path d="M487.502 609.014V444.805C487.502 444.402 487.584 444.004 487.743 443.633C487.901 443.263 488.133 442.929 488.425 442.651L501.179 430.638C501.753 430.101 502.517 429.813 503.303 429.837C504.089 429.86 504.833 430.194 505.374 430.764L516.562 442.665C517.07 443.219 517.354 443.942 517.359 444.693V609.014" fill="#2E353A"/>
<path d="M487.502 609.014V444.805C487.502 444.402 487.584 444.004 487.743 443.633C487.901 443.263 488.133 442.929 488.425 442.651L501.179 430.638C501.753 430.101 502.517 429.813 503.303 429.837C504.089 429.86 504.833 430.194 505.374 430.764L516.562 442.665C517.07 443.219 517.354 443.942 517.359 444.693V609.014" stroke="#2E353A" stroke-linecap="round" stroke-linejoin="round"/>
<path d="M484.481 610.412V444.805C484.481 444.401 484.564 444.001 484.725 443.63C484.886 443.26 485.122 442.927 485.418 442.651L498.172 430.638C498.456 430.371 498.789 430.162 499.154 430.023C499.518 429.885 499.906 429.819 500.296 429.831C500.686 429.843 501.069 429.931 501.425 430.091C501.78 430.252 502.101 430.48 502.368 430.764L513.556 442.665C514.069 443.216 514.354 443.941 514.353 444.693V610.412" fill="#F1ECE8"/>
<path d="M484.481 610.412V444.805C484.481 444.401 484.564 444.001 484.725 443.63C484.886 443.26 485.122 442.927 485.418 442.651L498.172 430.638C498.456 430.371 498.789 430.162 499.154 430.023C499.518 429.885 499.906 429.819 500.296 429.831C500.686 429.843 501.069 429.931 501.425 430.091C501.78 430.252 502.101 430.48 502.368 430.764L513.556 442.665C514.069 443.216 514.354 443.941 514.353 444.693V610.412" stroke="#2E353A" stroke-linecap="round" stroke-linejoin="round"/>
<path d="M595.646 609.014V444.805C595.646 444.402 595.728 444.004 595.887 443.634C596.045 443.263 596.277 442.929 596.569 442.651L609.337 430.638C609.62 430.371 609.954 430.162 610.318 430.023C610.683 429.885 611.071 429.819 611.461 429.831C611.85 429.843 612.234 429.931 612.59 430.091C612.945 430.252 613.265 430.48 613.532 430.764L624.72 442.665C625.234 443.216 625.519 443.941 625.517 444.693V609.014" fill="#2E353A"/>
<path d="M595.646 609.014V444.805C595.646 444.402 595.728 444.004 595.887 443.634C596.045 443.263 596.277 442.929 596.569 442.651L609.337 430.638C609.62 430.371 609.954 430.162 610.318 430.023C610.683 429.885 611.071 429.819 611.461 429.831C611.85 429.843 612.234 429.931 612.59 430.091C612.945 430.252 613.265 430.48 613.532 430.764L624.72 442.665C625.234 443.216 625.519 443.941 625.517 444.693V609.014" stroke="#2E353A" stroke-linecap="round" stroke-linejoin="round"/>
<path d="M592.625 610.412V444.805C592.625 444.401 592.708 444.001 592.869 443.63C593.03 443.26 593.266 442.926 593.562 442.651L606.316 430.638C606.891 430.101 607.654 429.813 608.44 429.837C609.226 429.86 609.971 430.194 610.512 430.764L621.7 442.665C622.217 443.214 622.507 443.939 622.511 444.693V610.412" fill="#F1ECE8"/>
<path d="M592.625 610.412V444.805C592.625 444.401 592.708 444.001 592.869 443.63C593.03 443.26 593.266 442.926 593.562 442.651L606.316 430.638C606.891 430.101 607.654 429.813 608.44 429.837C609.226 429.86 609.971 430.194 610.512 430.764L621.7 442.665C622.217 443.214 622.507 443.939 622.511 444.693V610.412" stroke="#2E353A" stroke-linecap="round" stroke-linejoin="round"/>
<path d="M177.908 430.764V442.735" stroke="#2E353A" stroke-linecap="round" stroke-linejoin="round"/>
<path d="M182.705 436.945V465.279" stroke="#2E353A" stroke-linecap="round" stroke-linejoin="round"/>
<path d="M274.067 439.267V475.11" stroke="#2E353A" stroke-linecap="round" stroke-linejoin="round"/>
<path d="M278.696 434.638V450.245" stroke="#2E353A" stroke-linecap="round" stroke-linejoin="round"/>
<path d="M390.028 430.638V465.866" stroke="#2E353A" stroke-linecap="round" stroke-linejoin="round"/>
<path d="M396.671 433.477V485.528" stroke="#2E353A" stroke-linecap="round" stroke-linejoin="round"/>
<path d="M489.767 439.267V478.578" stroke="#2E353A" stroke-linecap="round" stroke-linejoin="round"/>
<path d="M504.801 434.638V444.469" stroke="#2E353A" stroke-linecap="round" stroke-linejoin="round"/>
<path d="M602.526 434.051V454.874" stroke="#2E353A" stroke-linecap="round" stroke-linejoin="round"/>
<path d="M615.252 436.372V496.507" stroke="#2E353A" stroke-linecap="round" stroke-linejoin="round"/>
<path d="M592.122 524.266H579.396" stroke="#2E353A" stroke-linecap="round" stroke-linejoin="round"/>
<path d="M592.122 534.097H547.594" stroke="#2E353A" stroke-linecap="round" stroke-linejoin="round"/>
<path d="M426.151 534.097H405.915" stroke="#2E353A" stroke-linecap="round" stroke-linejoin="round"/>
<path d="M319.755 534.097H299.519" stroke="#2E353A" stroke-linecap="round" stroke-linejoin="round"/>
<path d="M159.574 528.895H139.338" stroke="#2E353A" stroke-linecap="round" stroke-linejoin="round"/>
<path d="M159.574 538.139H151.477" stroke="#2E353A" stroke-linecap="round" stroke-linejoin="round"/>
<path d="M415.746 528.895H405.915" stroke="#2E353A" stroke-linecap="round" stroke-linejoin="round"/>
<path d="M308.19 539.873H298.358" stroke="#2E353A" stroke-linecap="round" stroke-linejoin="round"/>
<path d="M267.13 539.873H257.299" stroke="#2E353A" stroke-linecap="round" stroke-linejoin="round"/>
<path d="M631.433 534.097H622.762" stroke="#2E353A" stroke-linecap="round" stroke-linejoin="round"/>
<path d="M642.998 534.097H637.796" stroke="#2E353A" stroke-linecap="round" stroke-linejoin="round"/>
<path d="M189.403 473.977C189.403 473.977 185.907 504.03 181.712 534.783C177.516 565.535 185.208 597.001 187.306 599.798" stroke="#2E353A" stroke-linecap="round" stroke-linejoin="round"/>
<path d="M175.572 534.811C176.244 528.811 176.803 525.021 176.803 525.021" stroke="#2E353A" stroke-linecap="round" stroke-linejoin="round"/>
<path d="M185.893 596.301C185.893 596.301 173.307 593.504 173.307 571.129C173.307 561.941 173.894 552.529 174.593 544.558" stroke="#2E353A" stroke-linecap="round" stroke-linejoin="round"/>
<path d="M291.492 438.316C291.492 438.316 294.289 440.414 289.394 464.188C284.499 487.962 285.199 522.924 291.492 542.502" stroke="#2E353A" stroke-linecap="round" stroke-linejoin="round"/>
<path d="M298.484 482.368C298.484 482.368 291.492 503.345 296.387 532.713" stroke="#2E353A" stroke-linecap="round" stroke-linejoin="round"/>
<path d="M378.197 495.639C378.197 495.639 381.693 515.917 385.19 536.88C388.686 557.844 385.889 587.225 383.092 594.903C380.295 602.581 377.498 608.888 377.498 608.888" stroke="#2E353A" stroke-linecap="round" stroke-linejoin="round"/>
<path d="M391.371 598.609C388.252 608.175 384.378 597.001 384.378 597.001" stroke="#2E353A" stroke-linecap="round" stroke-linejoin="round"/>
<path d="M391.245 527.119C391.245 527.119 397.832 561.116 394.112 586.708" stroke="#2E353A" stroke-linecap="round" stroke-linejoin="round"/>
<path d="M376.799 538.307C376.799 538.307 383.791 552.991 377.498 566.975" stroke="#2E353A" stroke-linecap="round" stroke-linejoin="round"/>
<path d="M507.276 540.376C508.212 544.651 509.441 548.857 510.954 552.963" stroke="#2E353A" stroke-linecap="round" stroke-linejoin="round"/>
<path d="M513.052 467.684C508.615 481.769 505.8 496.314 504.661 511.037C504.244 518.486 504.661 525.958 505.906 533.314" stroke="#2E353A" stroke-linecap="round" stroke-linejoin="round"/>
<path d="M499.766 531.986C499.766 531.986 506.06 555.76 509.556 564.151C513.052 572.542 511.654 592.805 507.458 602.595" stroke="#2E353A" stroke-linecap="round" stroke-linejoin="round"/>
<path d="M594.136 478.172C594.136 478.172 608.12 503.345 594.835 544.586" stroke="#2E353A" stroke-linecap="round" stroke-linejoin="round"/>
<path d="M606.988 521.161C607.071 529.021 606.372 538.978 603.226 547.369C596.933 564.151 594.136 569.745 594.136 569.745" stroke="#2E353A" stroke-linecap="round" stroke-linejoin="round"/>
<path d="M606.023 507.541C606.023 507.541 606.484 510.547 606.764 515.176" stroke="#2E353A" stroke-linecap="round" stroke-linejoin="round"/>
</svg>
