<svg width="28" height="25" viewBox="0 0 28 25" fill="none" xmlns="http://www.w3.org/2000/svg">
<path d="M20.5497 11.0212C20.4539 12.3671 20.0419 13.6713 19.3471 14.8276C18.5222 16.2137 17.328 17.3426 15.8982 18.0878C14.4685 18.833 12.8597 19.1651 11.2521 19.0469C9.90737 18.951 8.60433 18.5386 7.44906 17.8432L1.50005 19.3511L3.86424 13.683C3.34674 12.4371 3.13058 11.0864 3.23339 9.7411C3.35275 8.13212 3.91732 6.58818 4.86386 5.28221C5.8104 3.97624 7.10153 2.95982 8.59263 2.3468C9.83743 1.82883 11.1869 1.61249 12.531 1.71539L13.0404 1.75304C15.1548 2.02722 17.094 3.0724 18.4865 4.68843C19.879 6.30447 20.627 8.37781 20.5873 10.5115L20.5497 11.0212Z" fill="#F1ECE8" stroke="#455A64" stroke-width="2" stroke-linecap="round" stroke-linejoin="round"/>
<path d="M12.7012 19.0177C13.0427 19.8497 13.5758 20.5893 14.2569 21.176C15.0685 21.8812 16.0601 22.3462 17.1208 22.5191C18.1815 22.692 19.2693 22.5659 20.2624 22.1549C21.0937 21.8131 21.8326 21.2796 22.4189 20.5978L26.4999 20.3087L23.8202 17.2145C23.8878 16.3176 23.7428 15.4173 23.3969 14.587C22.9856 13.5934 22.3059 12.7339 21.4341 12.105C20.5623 11.4761 19.5328 11.1025 18.4609 11.0261C17.5647 10.9585 16.6652 11.1036 15.8357 11.4498L15.5211 11.5801C14.2396 12.1957 13.2301 13.2628 12.6858 14.5771C12.1414 15.8913 12.1006 17.3603 12.571 18.7028L12.7012 19.0177Z" fill="#F1ECE8" stroke="#455A64" stroke-width="2" stroke-linecap="round" stroke-linejoin="round"/>
</svg>
