<svg width="12" height="21" viewBox="0 0 12 21" fill="none" xmlns="http://www.w3.org/2000/svg">
<path d="M6.85714 8.16667H12L11.4286 10.5H6.85714V21H4.57143V10.5H0V8.16667H4.57143V5.98267C4.57143 3.9025 4.784 3.14767 5.18172 2.387C5.57144 1.63544 6.17349 1.02084 6.90971 0.623C7.65486 0.217 8.39429 0 10.432 0C11.0286 0 11.552 0.0583334 12 0.175V2.33333H10.432C8.91886 2.33333 8.45829 2.42433 7.98743 2.681C7.64945 2.86126 7.3738 3.14305 7.19771 3.48833C6.94629 3.96783 6.85714 4.438 6.85714 5.98267V8.16667Z" fill="#4285F4"/>
</svg>
