<svg width="21" height="21" viewBox="0 0 21 21" fill="none" xmlns="http://www.w3.org/2000/svg">
<path d="M10.5011 21C8.77441 21.0004 7.07426 20.5748 5.5513 19.761C4.02834 18.9472 2.72958 17.7703 1.7701 16.3346C0.810611 14.8988 0.220016 13.2486 0.0506367 11.53C-0.118743 9.81141 0.138322 8.07759 0.799056 6.48213C1.45979 4.88666 2.5038 3.47881 3.83858 2.3833C5.17336 1.28778 6.75771 0.538432 8.45127 0.201633C10.1448 -0.135167 11.8953 -0.0490176 13.5476 0.452448C15.1999 0.953914 16.703 1.85522 17.9238 3.0765C18.0413 3.19356 18.1345 3.33265 18.1981 3.48581C18.2617 3.63896 18.2944 3.80317 18.2944 3.969C18.2944 4.13483 18.2617 4.29904 18.1981 4.45219C18.1345 4.60535 18.0413 4.74444 17.9238 4.8615C17.6848 5.0937 17.3647 5.22359 17.0314 5.22359C16.6982 5.22359 16.3781 5.0937 16.139 4.8615C15.4017 4.11648 14.5235 3.52574 13.5555 3.12373C12.5875 2.72172 11.5492 2.51649 10.5011 2.52C8.97707 2.52107 7.4852 2.95864 6.20197 3.78095C4.91874 4.60327 3.89783 5.77592 3.25999 7.16023C2.62215 8.54454 2.39406 10.0826 2.6027 11.5924C2.81134 13.1023 3.44798 14.5208 4.43732 15.6802C5.42666 16.8396 6.72732 17.6914 8.18545 18.1348C9.64359 18.5783 11.1982 18.5948 12.6654 18.1824C14.1326 17.77 15.4511 16.9461 16.4648 15.8079C17.4785 14.6698 18.1451 13.2651 18.3858 11.76H10.5011C10.167 11.76 9.84653 11.6272 9.61026 11.391C9.37399 11.1547 9.24126 10.8342 9.24126 10.5C9.24126 10.1658 9.37399 9.84534 9.61026 9.60905C9.84653 9.37275 10.167 9.24 10.5011 9.24H19.7401C20.0743 9.24 20.3947 9.37275 20.631 9.60905C20.8673 9.84534 21 10.1658 21 10.5C20.9945 13.2831 19.8865 15.9506 17.9188 17.9185C15.9511 19.8864 13.2839 20.9944 10.5011 21Z" fill="#4285F4"/>
</svg>
