<svg width="32" height="32" viewBox="0 0 32 32" fill="none" xmlns="http://www.w3.org/2000/svg">
<path d="M13.0875 14.4124L4.33658 23.8494C3.96106 24.2544 3.98493 24.8871 4.38989 25.2626L7.49417 28.1412C7.89914 28.5167 8.53186 28.4929 8.90738 28.0879L17.6978 18.6082C17.9761 18.3081 18.4075 18.2133 18.8044 18.3128C20.6207 18.7682 23.9128 18.7816 26.4467 16.0491C28.6898 13.6301 28.6494 10.6946 28.145 8.76846C27.9682 8.09343 27.1443 7.96266 26.6698 8.47432L23.2587 12.1529C22.8831 12.5579 22.2504 12.5818 21.8455 12.2062L18.9697 9.5396C18.5648 9.16408 18.5409 8.53136 18.9164 8.12639L22.2693 4.51062C22.7593 3.98217 22.5364 3.1464 21.822 3.05118C19.7928 2.78072 16.8058 3.06839 14.5798 5.46888C12.0623 8.18375 12.5292 11.4326 13.2664 13.2116C13.4339 13.6159 13.3851 14.0914 13.0875 14.4124Z" stroke="white" stroke-linejoin="round"/>
<circle cx="8.60116" cy="23.653" r="0.933527" stroke="white"/>
</svg>
