<svg width="31" height="28" viewBox="0 0 31 28" fill="none" xmlns="http://www.w3.org/2000/svg">
<path d="M23.2966 10.4127C22.7935 9.93061 22.521 9.25981 22.521 8.56805C22.521 7.8763 22.7935 7.22646 23.2966 6.72337C23.3805 6.63952 23.4643 6.57663 23.5691 6.49278C23.7159 6.38797 23.7578 6.19931 23.7159 6.03161C23.5482 5.4237 23.2966 4.83675 23.0031 4.29173C22.9193 4.14499 22.7516 4.06114 22.5839 4.08211C22.4372 4.10307 22.3323 4.10307 22.2275 4.10307C20.7811 4.10307 19.6072 2.92918 19.6072 1.50374C19.6072 1.39892 19.6072 1.27315 19.6282 1.14738C19.6492 0.979677 19.5653 0.811979 19.4186 0.728129C18.8736 0.434656 18.2866 0.183108 17.6787 0.0154087C17.511 -0.026516 17.3223 0.036371 17.2175 0.162145C17.1337 0.266957 17.0498 0.371769 16.9869 0.434656C16.4838 0.91679 15.834 1.1893 15.1423 1.1893C14.4505 1.1893 13.7797 0.91679 13.2976 0.434656C13.2137 0.350807 13.1508 0.266957 13.067 0.162145C12.9622 0.0154087 12.7735 -0.026516 12.6058 0.0154087C11.9979 0.20407 11.411 0.434656 10.8659 0.728129C10.7192 0.811979 10.6353 0.979677 10.6563 1.14738C10.6773 1.29411 10.6773 1.39892 10.6773 1.50374C10.6773 2.95014 9.50338 4.10307 8.05697 4.10307C7.95216 4.10307 7.82639 4.10307 7.70061 4.08211C7.53292 4.06114 7.36522 4.14499 7.28137 4.29173C6.98789 4.83675 6.73635 5.4237 6.56865 6.03161C6.52672 6.19931 6.56865 6.38797 6.71538 6.49278C6.84116 6.57663 6.92501 6.66048 6.98789 6.72337C8.01505 7.72956 8.01505 9.38558 6.98789 10.4127C6.90404 10.4966 6.82019 10.5595 6.71538 10.6433C6.56865 10.7481 6.52672 10.9368 6.56865 11.1045C6.75731 11.7124 6.98789 12.2994 7.28137 12.8444C7.36522 12.9911 7.53292 13.075 7.70061 13.054C7.84735 13.033 7.95216 13.033 8.05697 13.033C9.50338 13.033 10.6773 14.2069 10.6773 15.6324C10.6773 15.7372 10.6773 15.863 10.6563 15.9887C10.6353 16.1564 10.7192 16.3241 10.8659 16.408C11.411 16.7014 11.9979 16.953 12.6058 17.1207C12.7735 17.1626 12.9622 17.1207 13.067 16.974C13.1508 16.8691 13.2347 16.7643 13.2976 16.7014C13.8007 16.2193 14.4505 15.9468 15.1423 15.9468C15.834 15.9468 16.5048 16.2193 16.9869 16.7014C17.0708 16.7853 17.1337 16.8691 17.2175 16.974C17.3014 17.0788 17.4271 17.1417 17.5529 17.1417C17.5948 17.1417 17.6368 17.1417 17.6787 17.1207C18.2866 16.932 18.8736 16.7014 19.4186 16.408C19.5653 16.3241 19.6492 16.1564 19.6282 15.9887C19.6072 15.842 19.6072 15.7372 19.6072 15.6324C19.6072 14.186 20.7811 13.033 22.2275 13.033C22.3323 13.033 22.4581 13.033 22.5839 13.054C22.7516 13.075 22.9193 12.9911 23.0031 12.8444C23.2966 12.2994 23.5482 11.7124 23.7159 11.1045C23.7578 10.9368 23.7159 10.7481 23.5691 10.6433C23.4643 10.5595 23.3595 10.4966 23.2966 10.4127ZM22.3952 12.1945H22.2066C20.299 12.1945 18.7478 13.7458 18.7478 15.6324V15.821C18.4124 15.9887 18.056 16.1355 17.6787 16.2612L17.5529 16.1355C16.9031 15.4856 16.0436 15.1293 15.1213 15.1293C14.1989 15.1293 13.3395 15.4856 12.6897 16.1355L12.5639 16.2612C12.2075 16.1355 11.8512 15.9887 11.4948 15.821V15.6324C11.4948 13.7248 9.94359 12.1945 8.03601 12.1945H7.84735C7.67965 11.8591 7.53292 11.5028 7.40714 11.1255L7.53292 10.9997C8.87451 9.6581 8.87451 7.47801 7.53292 6.11546L7.40714 5.98968C7.53292 5.63332 7.67965 5.27696 7.84735 4.9206H8.03601C9.94359 4.9206 11.4948 3.36939 11.4948 1.48277V1.29411C11.8302 1.12641 12.1866 0.979677 12.5639 0.853903L12.6897 0.979677C13.3395 1.62951 14.1989 1.98587 15.1213 1.98587C16.0436 1.98587 16.9031 1.62951 17.5529 0.979677L17.6787 0.853903C18.0351 0.979677 18.3914 1.12641 18.7478 1.29411V1.48277C18.7478 3.39035 20.299 4.9206 22.2066 4.9206H22.3952C22.5629 5.256 22.7097 5.61236 22.8354 5.98968L22.7097 6.11546C22.0598 6.76529 21.7035 7.62475 21.7035 8.54709C21.7035 9.46943 22.0598 10.3289 22.7097 10.9787L22.8354 11.1045C22.7097 11.5028 22.5629 11.8591 22.3952 12.1945ZM15.1423 3.57901C12.3962 3.57901 10.1532 5.82198 10.1532 8.56805C10.1532 11.3141 12.3962 13.5571 15.1423 13.5571C17.8883 13.5571 20.1313 11.3141 20.1313 8.56805C20.1313 5.82198 17.8883 3.57901 15.1423 3.57901ZM15.1423 12.7186C12.8574 12.7186 10.9917 10.853 10.9917 8.56805C10.9917 6.28316 12.8574 4.4175 15.1423 4.4175C17.4271 4.4175 19.2928 6.28316 19.2928 8.56805C19.2928 10.853 17.4271 12.7186 15.1423 12.7186Z" fill="white"/>
<path d="M9.23401 18.1703V25.0214H5.95741M15.4893 18.1703V22.3406M21.4468 18.1703V25.0214H24.7234" stroke="white" stroke-width="0.8"/>
<circle cx="2.97872" cy="25.0213" r="2.57872" stroke="white" stroke-width="0.8"/>
<circle cx="15.4894" cy="25.0213" r="2.57872" stroke="white" stroke-width="0.8"/>
<circle cx="27.4042" cy="25.0213" r="2.57872" stroke="white" stroke-width="0.8"/>
</svg>
