<svg width="33" height="26" viewBox="0 0 33 26" fill="none" xmlns="http://www.w3.org/2000/svg">
<path d="M26.673 7.88273C26.2921 7.51774 26.0858 7.00993 26.0858 6.48625C26.0858 5.96257 26.2921 5.47063 26.673 5.08977C26.7365 5.0263 26.8 4.97869 26.8793 4.91521C26.9904 4.83587 27.0221 4.69305 26.9904 4.56609C26.8634 4.10589 26.673 3.66156 26.4508 3.24896C26.3874 3.13788 26.2604 3.0744 26.1335 3.09027C26.0224 3.10614 25.943 3.10614 25.8637 3.10614C24.7687 3.10614 23.88 2.21747 23.88 1.13837C23.88 1.05902 23.88 0.96381 23.8959 0.868596C23.9118 0.741643 23.8483 0.61469 23.7372 0.551214C23.3246 0.329047 22.8803 0.138618 22.4201 0.0116648C22.2931 -0.0200734 22.1503 0.0275339 22.071 0.122748C22.0075 0.202094 21.944 0.281439 21.8964 0.329047C21.5155 0.694036 21.0236 0.900334 20.4999 0.900334C19.9762 0.900334 19.4684 0.694036 19.1034 0.329047C19.04 0.26557 18.9924 0.202094 18.9289 0.122748C18.8495 0.0116648 18.7067 -0.0200734 18.5798 0.0116648C18.1196 0.154487 17.6752 0.329047 17.2626 0.551214C17.1515 0.61469 17.0881 0.741643 17.1039 0.868596C17.1198 0.979679 17.1198 1.05902 17.1198 1.13837C17.1198 2.23334 16.2311 3.10614 15.1362 3.10614C15.0568 3.10614 14.9616 3.10614 14.8664 3.09027C14.7394 3.0744 14.6125 3.13788 14.549 3.24896C14.3268 3.66156 14.1364 4.10589 14.0095 4.56609C13.9777 4.69305 14.0095 4.83587 14.1206 4.91521C14.2158 4.97869 14.2792 5.04217 14.3268 5.08977C15.1044 5.85149 15.1044 7.10515 14.3268 7.88273C14.2634 7.94621 14.1999 7.99382 14.1206 8.05729C14.0095 8.13664 13.9777 8.27946 14.0095 8.40641C14.1523 8.86662 14.3268 9.31095 14.549 9.72355C14.6125 9.83463 14.7394 9.89811 14.8664 9.88224C14.9775 9.86637 15.0568 9.86637 15.1362 9.86637C16.2311 9.86637 17.1198 10.755 17.1198 11.8341C17.1198 11.9135 17.1198 12.0087 17.1039 12.1039C17.0881 12.2309 17.1515 12.3578 17.2626 12.4213C17.6752 12.6435 18.1196 12.8339 18.5798 12.9608C18.7067 12.9926 18.8495 12.9608 18.9289 12.8498C18.9924 12.7704 19.0558 12.6911 19.1034 12.6435C19.4843 12.2785 19.9762 12.0722 20.4999 12.0722C21.0236 12.0722 21.5314 12.2785 21.8964 12.6435C21.9599 12.7069 22.0075 12.7704 22.071 12.8498C22.1344 12.9291 22.2297 12.9767 22.3249 12.9767C22.3566 12.9767 22.3883 12.9767 22.4201 12.9608C22.8803 12.818 23.3246 12.6435 23.7372 12.4213C23.8483 12.3578 23.9118 12.2309 23.8959 12.1039C23.88 11.9928 23.88 11.9135 23.88 11.8341C23.88 10.7392 24.7687 9.86637 25.8637 9.86637C25.943 9.86637 26.0382 9.86637 26.1335 9.88224C26.2604 9.89811 26.3874 9.83463 26.4508 9.72355C26.673 9.31095 26.8634 8.86662 26.9904 8.40641C27.0221 8.27946 26.9904 8.13664 26.8793 8.05729C26.8 7.99382 26.7206 7.94621 26.673 7.88273ZM25.9906 9.23161H25.8478C24.4037 9.23161 23.2294 10.4059 23.2294 11.8341V11.977C22.9755 12.1039 22.7057 12.215 22.4201 12.3102L22.3249 12.215C21.8329 11.7231 21.1823 11.4533 20.4841 11.4533C19.7858 11.4533 19.1352 11.7231 18.6432 12.215L18.548 12.3102C18.2783 12.215 18.0085 12.1039 17.7387 11.977V11.8341C17.7387 10.39 16.5644 9.23161 15.1203 9.23161H14.9775C14.8505 8.9777 14.7394 8.70793 14.6442 8.42228L14.7394 8.32707C15.7551 7.31145 15.7551 5.66106 14.7394 4.62957L14.6442 4.53436C14.7394 4.26458 14.8505 3.99481 14.9775 3.72503H15.1203C16.5644 3.72503 17.7387 2.55072 17.7387 1.1225V0.979679C17.9926 0.852727 18.2624 0.741643 18.548 0.646428L18.6432 0.741643C19.1352 1.23358 19.7858 1.50336 20.4841 1.50336C21.1823 1.50336 21.8329 1.23358 22.3249 0.741643L22.4201 0.646428C22.6899 0.741643 22.9596 0.852727 23.2294 0.979679V1.1225C23.2294 2.56659 24.4037 3.72503 25.8478 3.72503H25.9906C26.1176 3.97894 26.2287 4.24871 26.3239 4.53436L26.2287 4.62957C25.7367 5.12151 25.4669 5.77214 25.4669 6.47038C25.4669 7.16862 25.7367 7.81926 26.2287 8.3112L26.3239 8.40641C26.2287 8.70793 26.1176 8.9777 25.9906 9.23161ZM20.4999 2.70941C18.4211 2.70941 16.7231 4.4074 16.7231 6.48625C16.7231 8.5651 18.4211 10.2631 20.4999 10.2631C22.5788 10.2631 24.2768 8.5651 24.2768 6.48625C24.2768 4.4074 22.5788 2.70941 20.4999 2.70941ZM20.4999 9.62833C18.7702 9.62833 17.3578 8.21598 17.3578 6.48625C17.3578 4.75652 18.7702 3.34417 20.4999 3.34417C22.2297 3.34417 23.642 4.75652 23.642 6.48625C23.642 8.21598 22.2297 9.62833 20.4999 9.62833Z" fill="white"/>
<path d="M6.58634 12.6788V11H1V23.6407H6.58634V21.9125M6.58634 12.6788C8.1866 12.218 10.3 11.7778 12.0222 14.8889C16.8666 14.1976 19.3738 17.4191 21.1632 17.4191C22.9526 17.4191 29.6736 13.3701 30.7647 14.1602C31.8558 14.9502 33.3397 17.0241 29.63 19.493C25.9203 21.9619 18.1518 29.0229 6.58634 21.9125M6.58634 12.6788V21.9125" stroke="white"/>
</svg>
