<svg width="22" height="26" viewBox="0 0 22 26" fill="none" xmlns="http://www.w3.org/2000/svg">
<path d="M20.5 10.8182C20.5 18.4545 11 25 11 25C11 25 1.5 18.4545 1.5 10.8182C1.5 8.21424 2.50089 5.71695 4.28249 3.87568C6.06408 2.03441 8.48044 1 11 1C13.5196 1 15.9359 2.03441 17.7175 3.87568C19.4991 5.71695 20.5 8.21424 20.5 10.8182Z" stroke="#455A64" stroke-width="2" stroke-linecap="round" stroke-linejoin="round"/>
<path d="M10.9999 14.0909C12.7488 14.0909 14.1665 12.6256 14.1665 10.8181C14.1665 9.01066 12.7488 7.54541 10.9999 7.54541C9.25096 7.54541 7.83319 9.01066 7.83319 10.8181C7.83319 12.6256 9.25096 14.0909 10.9999 14.0909Z" stroke="#455A64" stroke-width="2" stroke-linecap="round" stroke-linejoin="round"/>
</svg>
