<svg width="52" height="52" viewBox="0 0 52 52" fill="none" xmlns="http://www.w3.org/2000/svg">
<path d="M50.9006 8.45174L43.5426 15.8106C43.0603 16.294 42.4872 16.6774 41.8563 16.9387C41.2254 17.2 40.5491 17.3341 39.8662 17.3333C38.8377 17.3337 37.8321 17.029 36.9768 16.4577C36.1214 15.8865 35.4548 15.0743 35.0611 14.1241C34.6674 13.1738 34.5645 12.1282 34.7653 11.1194C34.966 10.1106 35.4615 9.18406 36.189 8.45694L43.547 1.09808C41.8346 0.37134 39.9931 -0.00214577 38.1329 9.27311e-06C30.4742 9.27311e-06 24.2662 6.20794 24.2662 13.8667C24.2662 15.4509 24.5453 16.9667 25.035 18.3846L1.77624 41.6433C0.638763 42.7812 -0.000162498 44.3242 3.10003e-08 45.9331C0.00016256 47.542 0.6394 49.0849 1.7771 50.2225C2.96184 51.4072 4.51404 52 6.06624 52C7.61844 52 9.17064 51.4072 10.3554 50.2233L33.6132 26.9646C35.032 27.4543 36.5486 27.7333 38.1329 27.7333C45.7916 27.7333 51.9996 21.5254 51.9996 13.8667C52.0019 12.0061 51.6281 10.1642 50.9006 8.45174ZM38.1329 26C36.8043 26 35.474 25.7729 34.18 25.3266L33.1548 24.9721L32.3878 25.7391L9.1299 48.9979C8.31177 49.816 7.22324 50.2667 6.06624 50.2667C4.90924 50.2667 3.8207 49.816 3.00257 48.997C2.19109 48.1838 1.73527 47.0819 1.73511 45.9331C1.73495 44.7842 2.19045 43.6822 3.0017 42.8688L26.2604 19.6101L27.0274 18.8439L26.6738 17.8195C26.2308 16.5486 26.0029 15.2126 25.9996 13.8667C25.9996 7.17601 31.4422 1.73334 38.1329 1.73334C38.8574 1.73334 39.5716 1.79574 40.2727 1.92054L34.9635 7.23061C32.2604 9.93461 32.2612 14.3329 34.9644 17.0352C36.2739 18.3456 38.0142 19.0667 39.8662 19.0667C41.7183 19.0667 43.4594 18.3456 44.7681 17.0361L50.0782 11.726C50.2038 12.4271 50.2662 13.1421 50.2662 13.8667C50.2662 20.5573 44.8236 26 38.1329 26Z" fill="white"/>
<path d="M6.06622 47.6667C7.02351 47.6667 7.79955 46.8907 7.79955 45.9334C7.79955 44.9761 7.02351 44.2001 6.06622 44.2001C5.10893 44.2001 4.33289 44.9761 4.33289 45.9334C4.33289 46.8907 5.10893 47.6667 6.06622 47.6667Z" fill="white"/>
</svg>
