<svg width="55" height="54" viewBox="0 0 55 54" fill="none" xmlns="http://www.w3.org/2000/svg">
<path d="M50.0196 32.7772H6.14217C5.80742 32.7769 5.48174 32.8877 5.21473 33.0928C4.94771 33.2979 4.75398 33.5861 4.66304 33.9134L1.19297 46.3856C0.97786 47.1588 0.942033 47.9721 1.0883 48.7617C1.23456 49.5514 1.55894 50.2958 2.03598 50.9367C2.51301 51.5775 3.12973 52.0973 3.83773 52.4553C4.54572 52.8133 5.32575 52.9998 6.11658 53H48.8834C49.6743 52.9998 50.4543 52.8133 51.1623 52.4553C51.8703 52.0973 52.487 51.5775 52.964 50.9367C53.4411 50.2958 53.7654 49.5514 53.9117 48.7617C54.058 47.9721 54.0221 47.1588 53.807 46.3856L50.0196 32.7772ZM50.0196 32.7772V16.8912M4.98036 32.7772V6.2C4.98036 4.82087 5.51959 3.49823 6.47942 2.52304C7.43925 1.54786 8.74106 1 10.0985 1H27.5M24.9409 45.2H30.059M41.9765 8.3528L34.737 15.7082M49.2135 8.3528C48.7414 8.84945 48.1767 9.2456 47.5522 9.51813C46.9278 9.79065 46.2562 9.9341 45.5766 9.9401C44.897 9.9461 44.2231 9.81453 43.5941 9.55307C42.9651 9.29161 42.3937 8.9055 41.9131 8.41725C41.4326 7.92901 41.0525 7.34842 40.7952 6.70936C40.5378 6.0703 40.4083 5.38557 40.4142 4.69511C40.4201 4.00466 40.5613 3.32232 40.8296 2.6879C41.0978 2.05348 41.4877 1.47968 41.9765 1M34.737 23.061C35.6693 22.0803 36.1852 20.7667 36.1735 19.4033C36.1618 18.0399 35.6236 16.7357 34.6746 15.7715C33.7257 14.8074 32.442 14.2605 31.1001 14.2487C29.7581 14.2368 28.4653 14.761 27.5 15.7082" stroke="black" stroke-width="1.5" stroke-linecap="round" stroke-linejoin="round"/>
</svg>
