<svg width="84" height="34" viewBox="0 0 84 34" fill="none" xmlns="http://www.w3.org/2000/svg">
<path d="M56 3.75L57.2133 3.02199C57.7611 2.69335 57.8541 1.93747 57.4025 1.4858V1.4858C57.1108 1.19409 56.6678 1.11584 56.2938 1.28994L30.9677 13.0797C30.5868 13.257 30.1357 13.1773 29.8386 12.8802L27.8762 10.9179C27.6887 10.7304 27.5833 10.476 27.5833 10.2108V5.66667C27.5833 5.11438 27.1356 4.66667 26.5833 4.66667H25.8333C25.281 4.66667 24.8333 5.11438 24.8333 5.66667V24.8333C24.8333 25.3396 24.4229 25.75 23.9167 25.75V25.75C23.4104 25.75 23 25.3396 23 24.8333V8.41667C23 7.86438 22.5544 7.41667 22.0021 7.41667C20.2322 7.41667 16.6391 7.41667 11.0833 7.41667C6.04167 7.41667 2.375 13.2222 2.375 16.125V25.9792C2.375 26.3589 2.0672 26.6667 1.6875 26.6667V26.6667C1.3078 26.6667 1 26.9745 1 27.3542V30.7083C1 31.2606 1.44772 31.7083 2 31.7083H3.50697C4.25035 31.7083 4.75868 30.9025 4.66496 30.165C4.32906 27.5218 5.98913 24.375 10.1667 24.375C14.5665 24.375 16.5229 27.1676 16.0358 30.3156C15.929 31.0056 16.4115 31.7083 17.1097 31.7083H46.3626C47.0451 31.7083 47.536 31.0299 47.4956 30.3485C47.3366 27.6698 48.9753 24.375 53.25 24.375C57.5433 24.375 59.075 27.6067 59.0447 30.0715C59.0354 30.8278 59.6607 31.6052 60.4123 31.5202L82.1542 29.0588C82.6597 29.0016 83.0417 28.5739 83.0417 28.0652V26.75C83.0417 26.1977 82.5939 25.75 82.0417 25.75H81.027C80.8457 25.75 80.6679 25.7007 80.5125 25.6075L74.1125 21.7675C73.9571 21.6743 73.7793 21.625 73.598 21.625H32.25C31.6977 21.625 31.25 21.1773 31.25 20.625V18.5764C31.25 18.1976 31.464 17.8513 31.8028 17.6819L34.6945 16.2361C34.8404 16.1631 34.9662 16.0556 35.061 15.9229L37.0609 13.123C37.1577 12.9876 37.2867 12.8785 37.4362 12.8055L56 3.75ZM56 3.75V8.33333M56 8.33333V8.33333C55.4937 8.33333 55.0833 8.74374 55.0833 9.25V9.70833C55.0833 10.2146 55.4937 10.625 56 10.625V10.625C56.5063 10.625 56.9167 10.2146 56.9167 9.70833V9.25C56.9167 8.74374 56.5063 8.33333 56 8.33333V8.33333Z" stroke="white" stroke-width="1.3" stroke-linejoin="round"/>
<circle cx="10.1667" cy="29.875" r="3.475" stroke="white" stroke-width="1.3" stroke-linejoin="round"/>
<circle cx="53.25" cy="29.875" r="3.475" stroke="white" stroke-width="1.3" stroke-linejoin="round"/>
</svg>
