<svg width="53" height="53" viewBox="0 0 53 53" fill="none" xmlns="http://www.w3.org/2000/svg">
<path d="M13.75 52H39.25" stroke="black" stroke-width="1.5" stroke-linecap="round" stroke-linejoin="round"/>
<path d="M1 39.25V6.1C1 4.7474 1.53732 3.45019 2.49376 2.49376C3.45019 1.53732 4.7474 1 6.1 1H46.9C48.2526 1 49.5498 1.53732 50.5062 2.49376C51.4627 3.45019 52 4.7474 52 6.1V39.25C52 40.6026 51.4627 41.8998 50.5062 42.8562C49.5498 43.8127 48.2526 44.35 46.9 44.35H6.1C4.7474 44.35 3.45019 43.8127 2.49376 42.8562C1.53732 41.8998 1 40.6026 1 39.25Z" stroke="black" stroke-width="1.5"/>
<path d="M18.85 22.675L23.95 27.775L34.15 17.575" stroke="black" stroke-width="1.5" stroke-linecap="round" stroke-linejoin="round"/>
</svg>
