<svg width="26" height="26" viewBox="0 0 26 26" fill="none" xmlns="http://www.w3.org/2000/svg">
<path d="M10.5862 14.208C11.1044 14.9016 11.7656 15.4755 12.525 15.8907C13.2843 16.306 14.124 16.5529 14.987 16.6148C15.8501 16.6767 16.7163 16.552 17.527 16.2493C18.3377 15.9466 19.0739 15.4729 19.6856 14.8603L23.3061 11.2363C24.4052 10.0971 25.0134 8.57134 24.9997 6.98764C24.9859 5.40394 24.3513 3.889 23.2326 2.76911C22.1138 1.64922 20.6004 1.01399 19.0182 1.00023C17.4361 0.986466 15.9119 1.59528 14.7738 2.69553L12.6981 4.76126" stroke="#455A64" stroke-width="2" stroke-linecap="round" stroke-linejoin="round"/>
<path d="M15.4138 11.792C14.8955 11.0984 14.2343 10.5245 13.4749 10.1093C12.7156 9.694 11.876 9.44705 11.0129 9.38518C10.1499 9.32331 9.2836 9.44796 8.47291 9.75067C7.66221 10.0534 6.92604 10.5271 6.31432 11.1396L2.69385 14.7637C1.59468 15.9029 0.98648 17.4286 1.00023 19.0123C1.01398 20.596 1.64858 22.111 2.76735 23.2309C3.88613 24.3508 5.39956 24.986 6.98168 24.9998C8.56381 25.0135 10.088 24.4047 11.2261 23.3045L13.2898 21.2387" stroke="#455A64" stroke-width="2" stroke-linecap="round" stroke-linejoin="round"/>
</svg>
