<svg width="32" height="29" viewBox="0 0 32 29" fill="none" xmlns="http://www.w3.org/2000/svg">
<path d="M31.6468 0.251892C31.5065 0.12861 31.3357 0.0466432 31.1529 0.0148354C30.9702 -0.0169724 30.7823 0.00258679 30.6097 0.0714023L1.13074 11.8047C0.772188 11.9474 0.468827 12.2045 0.26622 12.5375C0.0636138 12.8705 -0.0273013 13.2614 0.00712876 13.6514C0.0415588 14.0415 0.199475 14.4096 0.457162 14.7006C0.714849 14.9915 1.0584 15.1896 1.43621 15.2651L9.30851 16.8377V25.7423C9.30867 26.1551 9.43012 26.5585 9.65727 26.9006C9.88443 27.2427 10.2069 27.508 10.5834 27.6624C10.9598 27.8168 11.373 27.8532 11.77 27.7671C12.1669 27.6809 12.5295 27.4761 12.8112 27.1788L16.6862 23.0912L22.7345 28.4837C23.1037 28.816 23.5796 28.9996 24.0727 29C24.288 28.9995 24.502 28.9651 24.7069 28.8979C25.0429 28.7898 25.3452 28.594 25.5835 28.33C25.8219 28.066 25.9881 27.743 26.0655 27.3933L31.9741 1.26825C32.0156 1.08459 32.0071 0.892878 31.9494 0.713778C31.8918 0.534678 31.7871 0.37498 31.6468 0.251892ZM1.75186 13.5179C1.74629 13.5026 1.74629 13.4858 1.75186 13.4705C1.75843 13.4654 1.7658 13.4614 1.77368 13.4587L25.0051 4.20934L9.97908 15.1571L1.77368 13.5238L1.75186 13.5179ZM11.5544 25.945C11.5143 25.9873 11.4627 26.0165 11.4063 26.0289C11.3498 26.0413 11.291 26.0363 11.2373 26.0146C11.1836 25.9928 11.1375 25.9553 11.1049 25.9068C11.0722 25.8583 11.0545 25.8011 11.054 25.7423V18.0656L15.3727 21.9121L11.5544 25.945ZM24.3651 26.9924C24.3543 27.0424 24.3306 27.0886 24.2963 27.1261C24.262 27.1636 24.2184 27.191 24.1702 27.2055C24.1209 27.2231 24.0679 27.2268 24.0167 27.2164C23.9655 27.206 23.918 27.1818 23.8792 27.1463L11.5835 16.1764L29.8184 2.88526L24.3651 26.9924Z" fill="#455A64"/>
</svg>
