<svg width="18" height="23" viewBox="0 0 18 23" fill="none" xmlns="http://www.w3.org/2000/svg">
<path d="M10.3333 0.8H10.1333V1V16.4C10.1333 17.1932 9.90927 17.9679 9.49048 18.626C9.07175 19.284 8.47759 19.7954 7.7843 20.0969C7.09114 20.3984 6.32902 20.4771 5.59386 20.3235C4.85863 20.17 4.18186 19.7906 3.64974 19.2319C3.11751 18.6731 2.75404 17.9599 2.6067 17.1822C2.45935 16.4044 2.53505 15.5982 2.82386 14.8661C3.11265 14.1341 3.60108 13.5099 4.22592 13.0716C4.85063 12.6333 5.584 12.4 6.33333 12.4H6.53333V12.2V10.8V10.6H6.33333C5.23671 10.6 4.16558 10.9415 3.25543 11.58C2.34541 12.2185 1.63756 13.1249 1.21993 14.1836C0.802325 15.2422 0.693194 16.4065 0.905976 17.5297C1.11876 18.653 1.64421 19.686 2.41727 20.4977C3.19043 21.3095 4.17671 21.8636 5.25196 22.0882C6.3273 22.3128 7.4418 22.1974 8.45408 21.7571C9.46623 21.3169 10.3297 20.5722 10.9366 19.6186C11.5433 18.6651 11.8667 17.545 11.8667 16.4V7.18283C12.4445 7.86558 13.1426 8.42849 13.925 8.83925C14.8793 9.34024 15.9323 9.6009 17.0002 9.6L17.2 9.59983V9.4V8V7.8H17C15.6418 7.8 14.3371 7.23357 13.3736 6.22187C12.4098 5.20984 11.8667 3.83523 11.8667 2.4V1V0.8H11.6667H10.3333Z" fill="#D82453" stroke="#D82453" stroke-width="0.4"/>
</svg>
