<svg width="48" height="53" viewBox="0 0 48 53" fill="none" xmlns="http://www.w3.org/2000/svg">
<path d="M6.97418 34.6617L18.476 43.1264L24.7536 52.5L29.6403 43.1264L41.2265 34.6617L24.7536 52.5L6.97418 34.6617Z" fill="#0C0505"/>
<path d="M6.97418 24.791L18.476 33.2557L24.8385 43.3748L29.6403 33.2557L41.2265 24.791L24.8385 43.3748L6.97418 24.791Z" fill="#0C0505"/>
<path d="M6.97418 13.7111L18.476 22.1757L24.7536 33.2275L29.6403 22.1757L41.2265 13.7111L24.7536 33.2275L6.97418 13.7111Z" fill="#0C0505"/>
<path d="M25.6981 16.6356V18.1796H25.5341C25.4809 17.8833 25.3849 17.6474 25.246 17.4718C25.1781 17.384 25.0924 17.305 24.989 17.2348C24.8885 17.1646 24.7777 17.1053 24.6566 17.057C24.5384 17.0065 24.4113 16.9681 24.2754 16.9418C24.1424 16.9133 24.008 16.899 23.8721 16.899C23.7214 16.899 23.5811 16.9187 23.451 16.9582C23.321 16.9956 23.2073 17.046 23.1098 17.1097C23.0152 17.1733 22.9414 17.2469 22.8882 17.3303C22.835 17.4115 22.8084 17.496 22.8084 17.5837C22.8084 17.7067 22.8468 17.8142 22.9236 17.9064C23.0005 17.9964 23.1053 18.0798 23.2383 18.1566C23.3742 18.2334 23.5323 18.308 23.7125 18.3804C23.8957 18.4529 24.0937 18.5308 24.3064 18.6142C24.5458 18.7086 24.7733 18.8007 24.989 18.8907C25.2047 18.9807 25.3938 19.0806 25.5563 19.1903C25.7217 19.2978 25.8532 19.4218 25.9507 19.5623C26.0482 19.7006 26.097 19.8674 26.097 20.0627C26.097 20.2295 26.0497 20.3886 25.9552 20.5401C25.8636 20.6893 25.7336 20.821 25.5651 20.9351C25.3997 21.047 25.2002 21.1359 24.9668 21.2018C24.7363 21.2698 24.4822 21.3038 24.2045 21.3038C24.1011 21.3038 24.0124 21.3027 23.9386 21.3005C23.8647 21.2983 23.7938 21.2929 23.7258 21.2841C23.6579 21.2775 23.587 21.2654 23.5131 21.2479C23.4422 21.2325 23.3565 21.2106 23.256 21.182C23.1851 21.1623 23.1127 21.1447 23.0389 21.1293C22.965 21.1118 22.897 21.0975 22.835 21.0865C22.7729 21.0756 22.7198 21.0668 22.6754 21.0602C22.6341 21.0536 22.6075 21.0503 22.5957 21.0503C22.5218 21.0503 22.4627 21.0668 22.4184 21.0997C22.377 21.1326 22.346 21.2007 22.3253 21.3038H22.1613V19.773H22.3253C22.3637 19.9332 22.408 20.0737 22.4583 20.1944C22.5114 20.3129 22.5705 20.4128 22.6355 20.494C22.7005 20.573 22.7848 20.6465 22.8882 20.7145C22.9916 20.7826 23.1068 20.8418 23.2339 20.8923C23.3639 20.9406 23.5028 20.979 23.6505 21.0075C23.8012 21.0339 23.9548 21.047 24.1114 21.047C24.2976 21.047 24.4645 21.0273 24.6122 20.9878C24.76 20.9483 24.8856 20.8956 24.989 20.8298C25.0924 20.7617 25.1707 20.6838 25.2239 20.596C25.28 20.506 25.3081 20.4128 25.3081 20.3162C25.3081 20.1735 25.2682 20.0539 25.1884 19.9574C25.1086 19.8586 25.0008 19.7708 24.8649 19.694C24.7319 19.6172 24.5753 19.5436 24.3951 19.4734C24.2178 19.4032 24.0302 19.3242 23.8322 19.2364C23.6076 19.1376 23.3905 19.0443 23.1807 18.9566C22.9739 18.8666 22.7907 18.7689 22.6311 18.6636C22.4716 18.556 22.343 18.4342 22.2455 18.2981C22.151 18.1621 22.1037 17.9996 22.1037 17.8109C22.1037 17.6529 22.148 17.5025 22.2367 17.3599C22.3253 17.2172 22.4479 17.0921 22.6045 16.9846C22.7611 16.877 22.9458 16.7925 23.1585 16.7311C23.3742 16.6674 23.6091 16.6356 23.8632 16.6356C24.1764 16.6356 24.5147 16.6938 24.8782 16.8101C25.0377 16.865 25.1544 16.8924 25.2283 16.8924C25.3051 16.8924 25.3672 16.8759 25.4144 16.843C25.4647 16.8079 25.5046 16.7388 25.5341 16.6356H25.6981Z" fill="black"/>
<path d="M46.2641 16.6356H47.9757V16.763H47.8816C47.8526 16.763 47.8128 16.7699 47.7622 16.7837C47.7139 16.7974 47.6621 16.8169 47.6066 16.8422C47.5511 16.8674 47.4944 16.8996 47.4365 16.9386C47.3786 16.9776 47.3256 17.0212 47.2773 17.0694C47.2266 17.1199 47.1712 17.1853 47.1109 17.2656C47.053 17.3459 46.9866 17.4412 46.9118 17.5514L45.7286 19.3243V20.4948C45.7286 20.7817 45.7624 20.9607 45.8299 21.0319C45.9192 21.1283 46.0639 21.1765 46.2641 21.1765H46.4233V21.3038H44.3391V21.1765H44.5128C44.7203 21.1765 44.8674 21.1168 44.9543 20.9974C45.0073 20.9263 45.0339 20.7587 45.0339 20.4948V19.3897L43.6878 17.4343C43.6082 17.3173 43.5406 17.2243 43.4852 17.1555C43.4321 17.0843 43.3911 17.0338 43.3621 17.004C43.3477 16.9902 43.3235 16.9707 43.2898 16.9455C43.256 16.9179 43.2138 16.8904 43.1631 16.8628C43.1125 16.8353 43.0558 16.8123 42.993 16.794C42.9327 16.7733 42.8688 16.763 42.8013 16.763V16.6356H44.9V16.763H44.7914C44.7384 16.763 44.6841 16.7687 44.6286 16.7802C44.5755 16.7917 44.5273 16.81 44.4839 16.8353C44.4404 16.8605 44.4042 16.8927 44.3753 16.9317C44.3488 16.9684 44.3355 17.0132 44.3355 17.0659C44.3355 17.1486 44.4091 17.2978 44.5562 17.5135L45.5802 19.0179L46.5428 17.5789C46.6875 17.3632 46.7599 17.2025 46.7599 17.0969C46.755 17.0487 46.7442 17.004 46.7273 16.9627C46.7104 16.9214 46.6839 16.8858 46.6477 16.8559C46.6115 16.8261 46.5621 16.8032 46.4993 16.7871C46.4366 16.771 46.3582 16.763 46.2641 16.763V16.6356Z" fill="black"/>
<path d="M1.7936 16.8904V18.7356H3.17829C3.37964 18.7356 3.54227 18.723 3.66618 18.6978C3.79319 18.6702 3.89232 18.6289 3.96357 18.5738C4.03482 18.5164 4.08438 18.4453 4.11226 18.3604C4.14014 18.2755 4.15873 18.1745 4.16802 18.0574H4.33994V19.6823H4.16802C4.14633 19.5676 4.12465 19.4746 4.10297 19.4035C4.08128 19.3301 4.0596 19.2773 4.03791 19.2451C4.01003 19.2038 3.97441 19.1682 3.93104 19.1384C3.88767 19.1063 3.83191 19.0787 3.76376 19.0558C3.69561 19.0328 3.61352 19.0156 3.51749 19.0042C3.42146 18.9927 3.30839 18.9869 3.17829 18.9869H1.7936V20.5258C1.7936 20.7301 1.80599 20.8563 1.83077 20.9045C1.84316 20.9251 1.85865 20.9446 1.87723 20.963C1.89582 20.9814 1.92215 20.9974 1.95623 21.0112C1.9934 21.0227 2.03987 21.0319 2.09563 21.0387C2.15448 21.0456 2.22728 21.0491 2.31402 21.0491H3.38274C3.56551 21.0491 3.7173 21.0456 3.83811 21.0387C3.96202 21.0296 4.06889 21.0158 4.15873 20.9974C4.25166 20.9768 4.3322 20.9492 4.40035 20.9148C4.4716 20.8781 4.54594 20.8322 4.62339 20.7771C4.71942 20.7083 4.817 20.6199 4.91612 20.512C5.01525 20.4042 5.11438 20.2779 5.21351 20.1333H5.39937L4.85572 21.3038H0V21.1765H0.223038C0.281895 21.1765 0.34385 21.1719 0.408903 21.1627C0.473955 21.1535 0.534361 21.1386 0.590121 21.1179C0.648978 21.0973 0.70164 21.072 0.748106 21.0422C0.794572 21.0101 0.827098 20.9733 0.845685 20.932C0.882858 20.8609 0.901444 20.7105 0.901444 20.481V17.4481C0.901444 17.1543 0.861174 16.9719 0.780632 16.9007C0.669113 16.8089 0.483249 16.763 0.223038 16.763H0V16.6356H4.85572V17.6581H4.7442C4.71012 17.5341 4.67605 17.432 4.64197 17.3517C4.6079 17.2714 4.56918 17.2048 4.52581 17.152C4.48244 17.0992 4.43288 17.0579 4.37712 17.0281C4.32136 16.9959 4.25476 16.9673 4.17731 16.942C4.0503 16.9076 3.83191 16.8904 3.52214 16.8904H1.7936Z" fill="black"/>
<path d="M7.14294 13.7954L24.8596 1L41.0296 13.7954M7.14294 25.0722L24.8596 12.7475L41.0296 25.0722M7.14294 34.8586L24.8596 23.481L41.0296 34.6336" stroke="url(#paint0_linear_92_36)" stroke-linecap="round"/>
<defs>
<linearGradient id="paint0_linear_92_36" x1="24.2691" y1="1" x2="24.2691" y2="34.6336" gradientUnits="userSpaceOnUse">
<stop stop-color="#552E36"/>
<stop offset="1" stop-color="#0C0505"/>
</linearGradient>
</defs>
</svg>
